<?xml version="1.0" encoding="UTF-8" standalone="no"?>
<!-- Created with Inkscape (http://www.inkscape.org/) -->

<svg
   version="1.1"
   id="svg1"
   width="565.51306"
   height="271.59509"
   viewBox="0 0 565.51306 271.59509"
   sodipodi:docname="Owl-III.svg"
   inkscape:version="1.4.2 (ebf0e940d0, 2025-05-08)"
   xmlns:inkscape="http://www.inkscape.org/namespaces/inkscape"
   xmlns:sodipodi="http://sodipodi.sourceforge.net/DTD/sodipodi-0.dtd"
   xmlns="http://www.w3.org/2000/svg"
   xmlns:svg="http://www.w3.org/2000/svg">
  <defs
     id="defs1" />
  <sodipodi:namedview
     id="namedview1"
     pagecolor="#ffffff"
     bordercolor="#000000"
     borderopacity="0.25"
     inkscape:showpageshadow="2"
     inkscape:pageopacity="0.0"
     inkscape:pagecheckerboard="0"
     inkscape:deskcolor="#d1d1d1"
     showgrid="false"
     inkscape:zoom="1.53"
     inkscape:cx="254.57516"
     inkscape:cy="86.27451"
     inkscape:window-width="1920"
     inkscape:window-height="1011"
     inkscape:window-x="0"
     inkscape:window-y="0"
     inkscape:window-maximized="1"
     inkscape:current-layer="layer1" />
  <g
     inkscape:groupmode="layer"
     id="layer1"
     inkscape:label="Layer 1"
     transform="translate(167.69781,526.89221)"
     style="display:inline">
    <path
       id="path6"
       style="display:inline;fill:#aa4400"
       d="m -146.68991,-493.73765 c -1.32173,0.14247 -1.98347,0.49716 -2.49804,1.11719 -2.12248,2.55742 -0.85507,5.6816 3.6914,9.10547 2.376,1.78931 4.89589,4.61695 5.59961,6.2832 0.70373,1.66625 2.57361,4.38231 4.15625,6.03516 l 2.87696,3.00586 -3.67578,-0.69141 c -2.02237,-0.3795 -5.18912,-1.62039 -7.03711,-2.75977 -4.17931,-2.57673 -6.35817,-2.62903 -7.66797,-0.18164 -1.73095,3.23431 1.39062,8.55418 9.87109,16.82227 4.3325,4.22399 9.11997,8.23625 10.64063,8.91601 4.44879,1.98928 2.34243,2.27314 -4.29688,0.58008 -7.61581,-1.94207 -11.42773,-0.92159 -11.42773,3.05664 0,3.86888 10.75108,13.66381 17.81836,16.23438 2.6085,0.94879 7.04502,2.77197 9.85937,4.05273 6.79687,3.09315 16.14796,6.03906 19.167969,6.03906 1.339215,0 2.17656,0.26094 1.859375,0.57813 -1.030608,1.03061 -9.599104,1.64508 -19.912114,1.42773 -5.54877,-0.11693 -11.27349,0.23688 -12.7207,0.78711 -5.14804,1.95729 -2.58518,7.07009 5.75781,11.48633 3.73473,1.97693 18.37136,5.88119 22.10547,5.89649 5.93138,0.0243 6.730721,1.549 1.15821,2.20898 -5.68159,0.6729 -11.36897,3.21611 -12.86719,5.75391 -1.55502,2.63397 2.94175,6.02851 9.74023,7.35351 3.05455,0.59532 6.731316,1.30896 8.169925,1.58594 2.517882,0.48477 2.560337,0.58942 1.115234,2.79492 -1.445039,2.20542 -1.382478,2.3655 1.703125,4.2793 2.819876,1.74899 4.303468,1.93576 12.326172,1.54297 13.729554,-0.67219 17.415134,-1.15692 21.359374,-2.8086 1.98,-0.82914 3.59961,-1.35975 3.59961,-1.17773 0,0.18201 -2.07679,1.66405 -4.61523,3.29297 -2.53845,1.62893 -5.59801,4.00876 -6.80079,5.28906 -1.838876,1.95741 -2.01159,2.65816 -1.07812,4.40234 0.98628,1.84289 1.82658,2.05295 7.52344,1.87696 7.4509,-0.23018 14.75898,-2.67041 18.375,-6.13477 2.9863,-2.86108 4.77337,-3.33197 1.95703,-0.51562 -2.40672,2.40669 -2.4681,5.40073 -0.13672,6.64843 2.37544,1.27129 8.01527,-0.28837 13.57617,-3.75195 2.376,-1.47988 5.40072,-3.00864 6.7207,-3.39844 1.32,-0.3898 3.58707,-1.54568 5.03907,-2.56836 l 2.64062,-1.85937 v 3.32227 c 0,5.68819 2.51416,5.24286 11.37696,-2.01563 2.2655,-1.85544 4.08836,-2.74089 4.44726,-2.16016 0.33446,0.54121 0.32729,1.44004 -0.0176,1.99805 -0.3449,0.55801 -0.36283,2.07134 -0.0391,3.36133 0.94456,3.76345 4.92139,3.10962 9.33984,-1.53516 3.08992,-3.24816 3.69141,-3.56093 3.69141,-1.91992 0,1.55435 0.61917,1.95899 2.99023,1.95899 2.20588,0 3.8196,-0.90283 6.14844,-3.44532 2.89764,-3.16348 3.20687,-3.28978 3.76563,-1.52929 1.08959,3.43299 3.38976,3.27589 7.10742,-0.48438 2.49258,-2.52117 4.21878,-3.48059 5.95898,-3.3125 1.78293,0.17222 2.80649,-0.42998 3.76172,-2.21484 0.89691,-1.67589 2.11186,-2.45313 3.83789,-2.45313 1.38918,0 3.00184,-0.4745 3.58203,-1.05469 0.51231,-0.51229 0.86664,-0.23553 1.1875,0.4375 l 2.26368,-8.71289 2.06445,-8.16015 c 0,0 1.13324,-5.40949 0.9043,-6.58399 -0.22895,-1.17451 -4.55274,-5.85742 -4.55274,-5.85742 l -2.16406,-17.45508 2.63867,-10.91797 -3.51562,-5.35351 -6.8086,-0.40625 c -7.12513,-0.42509 -10.66123,-1.12973 -14.27929,-2.84375 -7.26614,-3.44225 -17.07718,-9.09085 -20.92774,-12.05078 -1.8889,-1.452 -3.65977,-2.64063 -3.93555,-2.64063 -0.27578,0 -2.14108,-1.11417 -4.14453,-2.47656 -3.22851,-2.19547 -4.24214,-2.40419 -8.92187,-1.83789 -2.904,0.35141 -5.69176,1.03265 -6.19336,1.51562 -0.5016,0.48298 -1.87926,0.87891 -3.0625,0.87891 -1.18324,0 -2.39543,0.3949 -2.69336,0.87695 -0.29793,0.48206 -2.35063,1.181 -4.5625,1.55469 -2.21187,0.37369 -6.30913,1.46633 -9.10352,2.42774 -5.89337,2.02761 -17.72607,1.87324 -30.61132,-0.39844 -7.887813,-1.39063 -11.377111,-2.83181 -22.552739,-9.31836 -3.463859,-2.01049 -7.567008,-3.97235 -9.119141,-4.35938 -2.455946,-0.61239 -6.62218,-3.10833 -22.55469,-13.51562 -1.87637,-1.22567 -4.3742,-2.22852 -5.55078,-2.22852 -1.17657,0 -3.74399,-0.67417 -5.70703,-1.49804 -1.96304,-0.82388 -7.03415,-1.74498 -11.26758,-2.04688 -3.15216,-0.22479 -5.13334,-0.29286 -6.45508,-0.15039 z m 514.3086,0.56641 c -4.56063,0.12404 -11.21127,1.06204 -13.43555,2.08398 -1.056,0.48518 -3.71659,1.29421 -5.91211,1.79883 -2.22256,0.51083 -8.8665,4.16413 -14.99023,8.24219 -6.04925,4.02844 -11.72547,7.32422 -12.61328,7.32422 -0.88784,0 -4.9489,1.92406 -9.02539,4.27539 -14.23902,8.21305 -18.71107,9.50553 -38.09961,11.01757 -7.50905,0.58561 -9.58231,0.38474 -15.83985,-1.53711 -3.95998,-1.21621 -8.1459,-2.21595 -9.30273,-2.22265 -1.15684,-0.007 -2.37095,-0.44466 -2.69727,-0.97266 -0.32632,-0.528 -1.81064,-0.96094 -3.29883,-0.96094 -1.48817,0 -3.2657,-0.67405 -3.95117,-1.5 -0.78826,-0.94981 -2.06295,-1.29765 -3.46679,-0.94531 -1.2208,0.3064 -3.04329,0.044 -4.04883,-0.58398 -1.52579,-0.95287 -2.59841,-0.67433 -6.49024,1.68359 -2.56482,1.55395 -5.3849,3.24807 -6.26562,3.76563 -0.88071,0.51756 -4.02448,2.59148 -6.98633,4.60937 -2.96185,2.01789 -8.93786,5.46172 -13.2793,7.65235 -6.86094,3.46193 -8.77233,3.99823 -14.61328,4.10351 -3.69598,0.0666 -7.90253,0.44874 -9.34961,0.84961 -1.19103,0.32994 -1.88636,0.37034 -2.36523,0.11719 -0.82459,0.9391 -1.69259,1.80859 -2.16992,1.80859 -1.08621,0 0.60156,7.36914 0.60156,7.36914 l -1.10156,15.75196 -4.53711,10.06445 0.96484,10.56641 2.16406,14.49023 c 0,0 0.13887,2.78532 0.28711,6.04297 0.0418,-0.15473 0.11696,-0.27052 0.15235,-0.43164 0.57916,-2.63687 0.84204,-2.76194 5.34179,-2.57227 2.60275,0.10971 4.73222,0.44184 4.73242,0.73828 0.001,1.61555 4.2814,4.84881 5.86915,4.4336 1.18508,-0.30991 2.94476,0.67329 5.14453,2.87304 3.68878,3.6888 6.57237,3.91184 7.05273,0.54493 0.16872,-1.18261 0.49401,-2.15039 0.72266,-2.15039 0.22865,0 1.97669,1.72784 3.88476,3.83984 3.94341,4.36487 7.63426,5.12102 8.85742,1.81445 0.73548,-1.9882 0.78036,-1.9807 2.37891,0.45899 1.91122,2.91688 6.95941,5.76871 8.89649,5.02539 0.89028,-0.34165 1.35351,-2.01485 1.35351,-4.89063 v -4.37109 l 6.29102,4.88281 c 7.09094,5.50313 9.40104,5.7846 9.8457,1.20117 l 0.29687,-3.06445 3.0625,1.86914 c 1.68455,1.02714 3.64697,1.86909 4.35938,1.87109 0.71242,0.002 3.73517,1.49662 6.71875,3.32227 5.77898,3.53615 9.71585,4.64634 13.29492,3.74805 2.80715,-0.70454 2.82824,-3.13269 0.0586,-6.69727 -1.94098,-2.49807 -1.75415,-2.43238 1.9121,0.67578 4.63812,3.9321 9.5497,5.65449 18.10157,6.34766 5.61801,0.45536 6.06118,0.33733 7.60547,-2.01953 2.05422,-3.13518 1.34429,-4.11103 -6.44336,-8.8418 -3.13257,-1.90293 -5.49193,-3.66432 -5.24219,-3.91406 0.24974,-0.24974 1.40942,0.0581 2.57812,0.68359 2.75212,1.47289 10.93272,2.85523 20.6543,3.49219 11.48853,0.75274 18.49545,-2.76774 14.43555,-7.25391 -1.51227,-1.67103 -1.29659,-1.77859 4.81054,-2.40429 7.34116,-0.75212 11.60769,-2.32224 14.19336,-5.22461 1.56698,-1.75891 1.63052,-2.25304 0.47852,-3.64844 -2.08343,-2.52362 -8.42704,-4.9318 -15.25195,-5.78906 l -6.24024,-0.78321 7.20117,-0.57031 c 10.21154,-0.80794 21.5623,-4.232 27.81055,-8.38867 5.74165,-3.81965 7.23896,-7.00684 4.08399,-8.69531 -1.00157,-0.53603 -8.59374,-1.13317 -16.8711,-1.32618 -10.93659,-0.25502 -15.37342,-0.70049 -16.23633,-1.63085 -0.65309,-0.70418 -0.72502,-1.02403 -0.1582,-0.70899 1.72638,0.9595 16.011,-3.07484 19.82617,-5.59961 1.97089,-1.30427 4.47414,-2.37109 5.5625,-2.37109 5.99705,0 23.34152,-13.7687 22.83203,-18.125 -0.51299,-4.38622 -7.76211,-5.01192 -17.57031,-1.51563 -1.056,0.37643 0.0761,-0.62078 2.51563,-2.21679 2.43946,-1.59602 5.11598,-3.87484 5.94921,-5.06446 0.83324,-1.18962 3.58975,-3.86931 6.125,-5.95508 5.09304,-4.19002 7.86829,-8.5178 7.92969,-12.36523 0.0719,-4.50764 -1.86293,-4.91011 -8.50781,-1.76758 -3.31365,1.56711 -6.93471,2.84961 -8.04688,2.84961 -1.86572,0 -1.79259,-0.24044 0.92969,-3.11914 1.62275,-1.716 3.32629,-4.25829 3.78711,-5.65039 0.46082,-1.3921 2.74038,-3.98582 5.06641,-5.76172 2.32604,-1.77589 4.70013,-3.9842 5.27539,-4.9082 1.46495,-2.35303 -0.3013,-4.84643 -3.96485,-5.5957 -0.81414,-0.16652 -2.10283,-0.21518 -3.62304,-0.17383 z m -256.4336,10.11719 c -7.30869,0.14988 -19.82608,2.03937 -22.51953,3.84179 -1.36215,0.91153 -2.7227,1.41011 -3.02539,1.10742 -1.59085,-1.59085 -10.45555,5.00039 -16.6582,11.46289 l 1.92578,9.25977 4.43359,-2.20899 17.69727,3.92188 16.83789,11.18164 5.89453,-5.71094 5.60742,-4.01758 5.30274,-6.18359 c 0,0 3.54252,-0.46578 4.8125,0.0137 1.26999,0.47945 14.90429,-6.2168 14.90429,-6.2168 l 4.17188,-2.65429 c -6.30936,-4.24806 -14.23472,-9.12576 -14.83008,-8.75781 -0.41863,0.25873 -1.40641,-0.17204 -2.19336,-0.95899 -2.46619,-2.46618 -9.58384,-4.40391 -12.79687,-3.48242 -1.73419,0.49736 -3.55168,0.45842 -4.54883,-0.0996 -0.72203,-0.40407 -2.57939,-0.54801 -5.01563,-0.49805 z m 2.95118,142.30468 c -1.93732,0 -14.80664,5.09961 -14.80664,5.09961 l -10.19727,3.39453 -8.07617,-1.2832 -7.60938,-0.12891 c 0.27134,1.25996 0.59591,2.41965 0.98047,3.26368 0.87879,1.92873 0.56249,2.96943 -2.0918,6.90234 -8.82293,13.07312 -9.979,25.45898 -2.37695,25.45898 1.90562,0 2.26944,0.60659 2.74024,4.56055 1.18726,9.9712 4.0107,12.74802 11.03906,10.85547 2.17683,-0.58616 5.27481,-2.17234 6.88281,-3.52539 l 2.92188,-2.46094 0.006,3.20508 c 0.009,5.48212 1.71371,9.83692 4.53515,11.58594 4.40615,2.73137 8.58718,2.00639 13.33985,-2.31446 2.02598,-1.84191 2.07249,-1.83429 6.66796,1.08008 9.5523,6.0579 16.50404,1.94306 16.67774,-9.87109 l 0.0547,-3.68555 2.92382,2.46094 c 3.34553,2.81507 9.71276,4.81484 12.50782,3.92773 3.05201,-0.96868 4.88634,-4.77835 5.05273,-10.49218 0.1466,-5.03439 0.28478,-5.31136 2.64649,-5.31836 4.13859,-0.0129 6.03264,-3.03016 5.37695,-8.56641 -0.64968,-5.48554 -3.03783,-10.57683 -8.94922,-19.08594 -2.31013,-3.32527 -4.19922,-6.39163 -4.19922,-6.8125 0,-0.37737 0.73579,-1.32105 1.64063,-2.20117 -2.30983,0.38004 -5.64063,0.93945 -5.64063,0.93945 l -13.23047,1.6875 -9.88086,-5.5 c 0,0 -6.99824,-3.17578 -8.93554,-3.17578 z" />
    <path
       id="path5"
       style="display:inline;fill:#ffb380"
       d="m 147.86869,-463.13609 c -2.87898,-0.12179 -8.46369,1.18325 -11.17383,2.92578 -3.75591,2.41493 -5.86001,2.92109 -7.27344,1.74805 -0.98709,-0.81921 -1.31836,-0.81829 -1.31836,0.004 0,0.60397 -1.11306,1.60514 -2.47265,2.22461 -1.3596,0.61947 -3.09732,2.33715 -3.86328,3.81836 -0.78727,1.52241 -2.18975,2.69336 -3.22461,2.69336 -1.00686,0 -2.08198,0.79509 -2.39063,1.76758 -0.30866,0.97248 -1.60502,2.75062 -2.88086,3.94922 l -2.32031,2.17773 -2.52539,-2.52539 c -1.38917,-1.38917 -2.90955,-2.28888 -3.37695,-2 -0.46742,0.28888 -1.32527,-0.36364 -1.90625,-1.44922 -0.58098,-1.08558 -1.49257,-1.70356 -2.02735,-1.37305 -0.53478,0.33051 -1.70107,-0.0363 -2.5918,-0.8164 -6.42697,-5.6284 -22.34709,-10.10935 -23.66992,-6.66211 -0.35382,0.92203 -1.3005,1.18276 -2.86914,0.78906 -1.53033,-0.38409 -2.60533,-0.11097 -3.10937,0.78906 -0.42395,0.75701 -2.51399,2.63848 -4.64453,4.18164 -2.88515,2.08973 -4.64265,4.54345 -6.88282,9.61524 -1.65424,3.74527 -2.58256,6.95164 -2.0625,7.125 0.60398,0.20133 0.50524,2.7106 -0.27539,6.94726 -0.94995,5.15554 -0.96458,6.7195 -0.0644,7.01953 0.63689,0.2123 1.1582,1.91177 1.1582,3.77735 0,2.95288 0.25593,3.32547 1.97852,2.875 1.31727,-0.34447 2.15816,0.019 2.51562,1.08789 0.29532,0.88301 1.39279,3.45026 2.4375,5.70507 1.04472,2.25482 1.64805,4.75271 1.3418,5.55079 -0.36442,0.94966 0.24954,1.75776 1.77539,2.33789 1.2823,0.48753 3.0513,1.98455 3.93164,3.32812 1.94898,2.97452 2.60421,3.01507 6.17774,0.37305 2.30822,-1.70655 3.05906,-1.85877 4.26562,-0.85742 1.2036,0.9989 2.08924,0.84729 4.97852,-0.85743 1.93309,-1.14055 4.12356,-1.84003 4.86718,-1.55468 0.82934,0.31825 1.98109,-0.60283 2.98047,-2.38282 1.08747,-1.93691 2.18919,-2.76256 3.31055,-2.48046 1.01698,0.25583 1.67969,-0.12151 1.67969,-0.95704 0,-0.75913 0.64745,-1.62967 1.43945,-1.93359 1.74288,-0.66881 1.81265,-2.76647 0.28125,-8.49218 -1.25597,-4.69596 -2.20621,-5.42361 -3.16016,-2.41797 -1.66682,5.25169 -16.67722,9.22852 -16.83789,4.46093 -0.0203,-0.60351 -1.38752,-1.96157 -3.03906,-3.01757 -4.64171,-2.96794 -6.48825,-6.16945 -6.91992,-12 -0.57453,-7.76014 -1.09115,-8.63058 -4.5293,-7.64453 -1.57611,0.45202 -3.48826,0.58332 -4.25,0.29101 -2.08654,-0.80068 -1.66126,-3.20703 0.56641,-3.20703 1.07257,0 2.19803,-0.64745 2.50195,-1.43945 0.30392,-0.792 1.35692,-1.43946 2.33985,-1.43946 1.13674,0 1.59925,-0.48958 1.27148,-1.34375 -0.82595,-2.15238 0.99102,-2.54708 5.00391,-1.08984 2.05283,0.74547 6.21055,2.08746 9.24023,2.98242 3.02969,0.89496 5.97787,2.19054 6.55078,2.88086 0.57292,0.69032 1.62163,1.03357 2.33008,0.76172 2.29728,-0.88155 8.7984,6.03012 10.46484,11.125 0.84974,2.59793 1.54493,5.39982 1.54493,6.22461 0,0.82479 0.3247,1.42901 0.7207,1.34375 1.29153,-0.27808 6,2.00405 6,2.9082 0,0.48458 0.67738,1.14182 1.5039,1.45898 1.15362,0.44268 1.36086,0.13137 0.89454,-1.33788 -0.34784,-1.09594 -0.16877,-1.91407 0.41796,-1.91407 0.56358,0 1.02344,-0.63472 1.02344,-1.41015 0,-0.92058 0.55457,-1.19715 1.59766,-0.79688 1.06119,0.40722 1.36915,0.24297 0.91601,-0.49023 -0.65658,-1.06236 1.30805,-8.07836 3.3086,-11.81641 0.53148,-0.99308 1.57604,-1.80664 2.32226,-1.80664 0.74622,0 2.47206,-1.03483 3.83594,-2.29883 2.3486,-2.1766 8.24534,-5.3405 15.97656,-8.57617 5.20929,-2.18019 11.10584,-1.1239 12.88086,2.3086 0.76492,1.47919 2.26735,3.30289 3.33789,4.05273 1.75808,1.23141 1.79832,1.48656 0.42188,2.62891 -1.27241,1.05601 -1.97263,0.99842 -4.24805,-0.34571 -1.49884,-0.88538 -3.3864,-1.60937 -4.19336,-1.60937 -1.82932,0 -2.91907,3.22067 -2.14062,6.32226 0.76994,3.06766 -2.81483,11.40082 -5.97266,13.88477 -1.32606,1.04308 -4.04258,2.15794 -6.03516,2.47656 -2.55214,0.40811 -3.47057,0.97202 -3.11132,1.9082 0.28048,0.73092 1.27413,1.32813 2.20898,1.32813 0.93486,0 2.21641,0.6222 2.84766,1.38281 0.63126,0.76062 1.76418,1.14652 2.51758,0.85742 0.75339,-0.28911 1.36914,-0.0972 1.36914,0.42578 0,2.18926 -5.36555,1.99353 -10.29688,-0.375 -5.17785,-2.48693 -7.91227,-5.46197 -9.60742,-10.45117 l -0.97852,-2.8789 -0.66406,2.8789 c -0.36564,1.584 -1.06713,3.8731 -1.55859,5.08594 -1.31036,3.23377 -1.0915,5.95508 0.48047,5.95508 0.75642,0 1.61628,0.75573 1.91015,1.68164 0.29387,0.92591 3.23923,2.96874 6.54492,4.53906 6.83871,3.24862 8.67722,3.96219 6.25,2.42578 -2.47664,-1.56769 -2.15104,-3.98713 0.48047,-3.57227 3.25497,0.51315 9.35938,3.34763 9.35938,4.34571 0,0.48317 2.03322,1.15752 4.51758,1.49804 3.5575,0.48761 4.69545,0.2977 5.35937,-0.88867 0.46365,-0.82849 2.10453,-2.94135 3.64453,-4.69531 1.54,-1.75397 2.79883,-4.14282 2.79883,-5.31055 0,-1.28148 0.72673,-2.31447 1.83203,-2.60351 1.9344,-0.50586 2.93339,-2.93696 2.95508,-7.19141 0.007,-1.41428 0.69364,-3.25223 1.52539,-4.08398 0.98214,-0.98214 1.44392,-2.94252 1.31641,-5.58984 -0.10799,-2.24196 0.14585,-4.89463 0.56445,-5.89649 0.44347,-1.06138 0.25442,-3.06532 -0.45313,-4.80078 -0.66786,-1.63814 -1.44521,-4.05891 -1.72656,-5.37891 -0.28136,-1.31999 -0.89311,-2.88544 -1.35937,-3.47851 -0.46625,-0.59308 -0.61094,-1.69305 -0.32227,-2.44531 0.28867,-0.75227 -0.56874,-2.39375 -1.9043,-3.64844 -1.33556,-1.25469 -2.42773,-2.8429 -2.42773,-3.5293 0,-1.5103 -4.89176,-4.17773 -7.66211,-4.17773 -1.0988,0 -2.21462,-0.56696 -2.48047,-1.25977 -0.15125,-0.39416 -0.81182,-0.59417 -1.77148,-0.63476 z m 15.54883,58.70118 c -0.45598,-0.0514 -1.835,1.53575 -4.56641,5.07617 -2.22489,2.88386 -4.97787,5.52568 -6.11719,5.86914 -1.13932,0.34346 -3.88716,2.57281 -6.10742,4.95508 -2.6517,2.84519 -4.54952,4.13453 -5.53125,3.75781 -1.62883,-0.62504 -6.17911,1.07558 -7.71289,2.88281 -0.528,0.62214 -3.66172,1.80663 -6.96484,2.63281 -3.30312,0.82618 -7.07686,2.20425 -8.38672,3.0625 -1.69915,1.11333 -3.5546,1.40092 -6.47461,1.00196 -2.25102,-0.30755 -7.11651,-0.83987 -10.8125,-1.1836 -3.696,-0.34372 -7.19502,-1.00153 -7.77539,-1.46093 -0.58037,-0.45942 -3.3795,-1.27563 -6.22071,-1.81446 -3.90378,-0.74034 -6.1092,-1.87427 -9.02539,-4.64258 -6.90239,-6.55238 -18.64331,-15.47398 -19.19336,-14.58398 -0.29511,0.4775 -0.17923,1.08926 0.25782,1.35937 0.43705,0.27011 0.37657,3.01173 -0.13282,6.0918 -1.04811,6.3375 -0.0429,14.77652 1.33008,11.16797 0.89323,-2.34778 2.48511,-3.6076 3.16602,-2.50586 0.25276,0.40897 0.57597,2.89952 0.71875,5.53516 0.32637,6.02472 1.6472,10.07226 3.28711,10.07226 0.69598,0 2.64569,1.74192 4.33203,3.8711 2.4286,3.06634 3.49368,3.73963 5.12109,3.24023 2.82271,-0.86621 2.79482,-0.74162 0.90235,-4.03906 -2.5495,-4.44226 -1.06915,-4.5262 3.65039,-0.20508 2.32183,2.12583 4.77705,3.65526 5.45703,3.39648 1.52241,-0.57935 2.717,2.16582 1.48047,3.40235 -0.55707,0.55707 -2.13195,-0.0133 -4.15235,-1.50391 -4.49518,-3.31644 -4.80637,-3.00655 -0.96093,0.96094 2.08478,2.15096 3.84622,3.17861 4.88281,2.84961 0.89158,-0.28298 3.16719,0.39691 5.05664,1.51172 4.33499,2.55771 6.15553,1.67622 3.50195,-1.69727 -2.68809,-3.41733 -1.85235,-3.69283 2.41797,-0.79492 1.98358,1.3461 4.06001,2.44727 4.61523,2.44727 0.55524,0 0.1714,0.67987 -0.85351,1.50976 -1.77294,1.43556 -1.71766,1.48399 1.13476,1.00781 2.33693,-0.39013 3.48502,0.0186 5.20704,1.85157 2.87075,3.05576 4.10106,2.96578 8.56445,-0.6211 2.53298,-2.03556 4.29684,-2.78138 5.5957,-2.36914 1.27227,0.4038 2.87919,-0.22648 4.88477,-1.91406 3.77717,-3.17829 3.87868,-4.68601 0.17187,-2.55859 -1.54992,0.88952 -3.13088,1.30663 -3.51172,0.92578 -1.06182,-1.06182 4.24125,-5.51504 5.83789,-4.90235 0.88801,0.34076 1.81685,-0.3601 2.51954,-1.90234 0.61179,-1.34273 1.70139,-2.66689 2.42187,-2.94336 1.99019,-0.76371 1.64893,3.94259 -0.37109,5.11914 -1.82269,1.06162 -1.80267,1.07884 1.56054,1.44531 1.5314,0.16687 3.49967,-0.91249 6,-3.29101 4.41684,-4.20163 5.05131,-7.04593 0.76758,-3.44141 -3.16283,2.66135 -4.72656,3.13063 -4.72656,1.42188 0,-1.3986 4.84754,-5.16731 6.70508,-5.21289 0.80083,-0.0196 1.96878,-0.35278 2.5957,-0.74024 0.64784,-0.40039 1.52393,-0.0183 2.0293,0.88477 0.71634,1.28003 1.4287,0.4533 3.66015,-4.25196 2.66503,-5.61948 4.5539,-7.26982 5.41993,-4.73632 0.3978,1.1637 2.6289,-9.8634 2.6289,-12.99219 0,-0.85451 0.64396,-1.91467 1.43164,-2.35547 1.1116,-0.62208 1.23828,-1.48259 0.56055,-3.8457 -0.48024,-1.6745 -0.64348,-3.92693 -0.36133,-5.00586 0.299,-1.14337 0.35757,-1.76409 0.084,-1.79492 z m -47.36524,3.21679 c -0.32053,-0.0635 -0.49159,0.57365 -0.85547,2.02344 -0.80425,3.2044 -5.23147,10.91211 -6.26758,10.91211 -0.41309,0 -1.99108,-2.48354 -3.50781,-5.51953 -3.45907,-6.92397 -3.21926,-6.59566 -4.00976,-5.49219 -1.38811,1.9377 -6.90642,5.25195 -8.74414,5.25195 -1.05254,0 -2.9063,0.40625 -4.11914,0.90235 -1.21284,0.4961 -4.28264,1.17481 -6.82227,1.50781 -4.84129,0.63478 -5.52783,2.03651 -1.89063,3.86719 1.08999,0.54861 2.65725,1.5593 3.48243,2.24414 0.82519,0.68485 1.95503,0.96393 2.50976,0.62109 0.55473,-0.34284 2.38562,0.35647 4.06836,1.55469 1.68273,1.19821 4.37853,2.32001 5.99219,2.49219 8.15144,0.8698 9.87785,1.14696 12.53516,2.01953 4.59488,1.50882 6.16829,1.26919 8.77539,-1.33789 1.34699,-1.347 2.94764,-2.27306 3.55664,-2.0586 0.609,0.21446 2.72942,-1.05862 4.71093,-2.83007 1.98152,-1.77146 4.19605,-3.22266 4.92188,-3.22266 0.72583,0 1.86268,-0.65266 2.52539,-1.45117 0.87214,-1.05087 1.54339,-1.17078 2.43164,-0.4336 0.87077,0.72267 1.42227,0.70136 1.90039,-0.0723 0.3706,-0.59964 1.4885,-0.87567 2.48438,-0.61524 0.99588,0.26043 2.07207,0.0506 2.39062,-0.46484 0.31855,-0.51543 1.50665,-1.31004 2.64063,-1.76758 1.98225,-0.79979 -0.0849,-0.99745 -14.83789,-1.41211 -1.90255,-0.0535 -4.58597,-0.83675 -5.96485,-1.74023 -1.37887,-0.90347 -3.14709,-1.64258 -3.92773,-1.64258 -0.78063,0 -2.03878,-0.88447 -2.79688,-1.9668 -0.59249,-0.84589 -0.93234,-1.31979 -1.18164,-1.36914 z m 14.24414,16.24024 c -0.17257,0.001 -0.40944,0.0572 -0.70312,0.16992 -1.66312,0.6382 -1.96879,1.32617 -0.58789,1.32617 0.49684,0 1.16764,-0.42726 1.49023,-0.94922 0.22071,-0.35712 0.13025,-0.54968 -0.19922,-0.54687 z m 35.0586,1.6875 c -0.16768,0.004 -0.4516,0.27453 -0.77149,0.76953 -0.51183,0.792 -0.93164,1.87044 -0.93164,2.39844 0,0.52799 0.41981,0.31348 0.93164,-0.47852 0.51183,-0.792 0.92969,-1.87239 0.92969,-2.40039 0,-0.198 -0.0576,-0.29145 -0.1582,-0.28906 z m -9.66797,14.71679 c -0.30098,0.006 -1.31884,0.98535 -3.08008,3.04297 -1.83475,2.1435 -5.50691,5.29156 -8.16016,6.99414 -4.62676,2.969 -6.25341,4.60875 -3.53711,3.56641 0.70788,-0.27164 1.89651,-0.10924 2.64063,0.36133 2.1693,1.37182 3.01739,0.68089 7.80664,-6.36328 3.34364,-4.91793 4.83171,-7.61216 4.33008,-7.60157 z m -84.0293,11.15625 c -0.33724,-0.0278 0.009,0.52612 0.87109,1.87305 0.81042,1.26666 1.78845,2.83806 2.17383,3.49219 0.53747,0.91226 1.27939,0.80951 3.18555,-0.43946 l 2.48437,-1.6289 -2.34961,-0.62891 c -1.29316,-0.34584 -3.39072,-1.18391 -4.66015,-1.86328 -0.9236,-0.4943 -1.47434,-0.78566 -1.70508,-0.80469 z m 12.54883,5.99805 c -0.97859,-0.0413 -1.76599,0.70961 -3.64258,2.64453 -3.05286,3.14774 -5.21599,8.49219 -3.4375,8.49219 0.49487,0 1.53048,0.24272 2.30273,0.53906 0.94466,0.3625 1.74044,-0.42125 2.42969,-2.39844 0.56623,-1.62427 1.71106,-2.93945 2.5586,-2.93945 1.23582,0 1.40828,0.65992 0.89453,3.39844 -0.35061,1.86889 -0.26142,3.31908 0.19726,3.22265 1.61308,-0.33913 6.92561,2.16755 7.44141,3.51172 0.40558,1.05691 1.0958,0.82988 3.09766,-1.02539 1.41645,-1.31273 2.94363,-2.38672 3.39453,-2.38672 0.4509,0 0.8259,-0.54117 0.83398,-1.20117 0.0365,-2.97511 1.48956,-3.70167 4.38086,-2.19336 2.41784,1.26131 2.84631,1.27119 3.10547,0.0781 0.77657,-3.57504 -1.49309,-4.97969 -10.08789,-6.24219 -4.64925,-0.68293 -9.70035,-1.87694 -11.22461,-2.6543 -1.00151,-0.51076 -1.65699,-0.82093 -2.24414,-0.8457 z m 55.90039,0.29883 c -0.41317,0.01 -0.76129,0.11085 -1.01367,0.32031 -0.62026,0.51477 -2.26067,0.53482 -3.95508,0.0488 -5.38343,-1.54395 -17.31887,5.89133 -14.44727,9 0.64429,0.69748 1.48796,1.07675 1.87305,0.84375 0.38509,-0.233 1.54521,0.0301 2.58008,0.58398 1.2493,0.6686 2.08156,0.68404 2.47656,0.0449 0.99844,-1.61551 3.49482,-1.07553 3.3125,0.71679 -0.36426,3.58096 -0.0197,4.53342 1.20117,3.3125 1.54717,-1.54717 4.12045,-1.45714 5.49024,0.19336 0.95725,1.15342 1.52616,1.14333 3.95898,-0.0703 1.56203,-0.77924 2.83985,-2.04652 2.83985,-2.81641 0,-1.77098 2.85588,-2.93266 3.73046,-1.51758 0.42627,0.68972 1.06659,0.40223 1.83008,-0.82031 0.67157,-1.07536 0.7716,-1.88086 0.23242,-1.88086 -0.51892,0 -1.58122,-1.23155 -2.35937,-2.73633 -1.3777,-2.66417 -5.51891,-5.27635 -7.75,-5.22265 z m -23.25781,6.08789 c -0.45886,0 -1.24553,0.30267 -2.18555,0.91016 -1.24098,0.80197 -1.2154,0.93264 0.18359,0.94531 0.89284,0.008 1.88853,-0.41732 2.21485,-0.94531 0.37545,-0.60749 0.24596,-0.91016 -0.21289,-0.91016 z" />
    <path
       style="display:inline;fill:#ffcc00"
       d="m 111.65674,-401.93837 c 0.82336,-2.65128 1.04967,-5.09745 0.57069,-6.16845 -0.63087,-1.41059 -0.90568,-1.00218 -1.3391,1.99014 -0.85151,5.87876 -2.94534,5.56419 -2.94534,-0.44251 0,-4.33342 -0.19136,-4.83873 -1.44,-3.80245 -1.80057,1.49434 -1.79536,2.29488 0.0555,8.52727 1.77874,5.98965 3.21499,5.96036 5.09829,-0.104 z"
       id="path4" />
    <path
       id="path3"
       style="display:inline;fill:#00ffff"
       d="m 143.25345,-434.8939 c -0.46355,0.0666 -0.75,1.44341 -0.75,3.70703 0,4.94583 -2.22106,8.32361 -6.93359,10.54492 -3.10961,1.46576 -7.96066,1.2524 -8.97852,-0.39453 -0.28736,-0.46495 -0.95442,-0.8457 -1.48242,-0.8457 -1.51813,0 0.10208,1.97044 2.37305,2.88672 1.13397,0.45753 3.73133,0.85911 5.77344,0.89258 3.07421,0.0504 4.35551,-0.58012 7.4414,-3.66602 3.2393,-3.2393 3.72657,-4.29996 3.72657,-8.10352 0,-2.40695 -0.43294,-4.64242 -0.96094,-4.96875 -0.0731,-0.0452 -0.14276,-0.0623 -0.20899,-0.0527 z m -69.74218,1.97266 -0.0645,3.53711 c -0.092,5.06838 1.24682,7.87572 4.89844,10.27929 4.3291,2.84951 12.19366,2.41717 15.68555,-0.86328 3.53583,-3.32175 3.11005,-5.56779 -0.48242,-2.54492 -3.6621,3.08146 -6.10973,3.84017 -10.01563,3.10742 -3.99273,-0.74904 -7.06494,-4.03886 -8.7168,-9.33398 z" />
    <path
       id="path2"
       style="display:inline;fill:#ffff00"
       d="m 132.45658,-432.03257 c -0.2981,8.7e-4 -0.59194,0.0491 -0.8711,0.15625 -1.83281,0.70332 -2.10812,4.8392 -0.36328,5.46484 1.67479,0.60052 4.56055,-1.03545 4.56055,-2.58594 0,-1.61169 -1.71646,-3.03986 -3.32617,-3.03515 z m -46.59375,0.55078 c -2.17801,0 -3.39479,2.07503 -2.5332,4.32031 0.7072,1.84294 2.91895,1.84851 4.44335,0.0117 1.59513,-1.92201 0.5323,-4.33203 -1.91015,-4.33203 z" />
    <path
       style="display:inline;fill:#000000"
       d="m 98.08345,-273.8214 c -2.82144,-1.74902 -4.52595,-6.10344 -4.5351,-11.58558 l -0.005,-3.20534 -2.92365,2.46009 c -1.608,1.35305 -4.70469,2.93967 -6.88152,3.52583 -7.02838,1.89255 -9.85202,-0.88402 -11.0393,-10.85524 -0.4708,-3.95396 -0.83505,-4.56 -2.74067,-4.56 -7.60207,0 -6.44535,-12.38605 2.3776,-25.45919 2.65429,-3.93291 2.96938,-4.97317 2.09059,-6.90192 -1.62582,-3.56829 -2.35544,-12.22666 -1.21058,-14.36586 0.83915,-1.56796 0.43136,-2.73836 -2.28554,-6.55973 -1.81881,-2.5582 -3.31439,-5.54722 -3.32351,-6.64228 -0.009,-1.09506 -1.05823,-2.97863 -2.33134,-4.1857 -1.27312,-1.20707 -2.59068,-3.45096 -2.92792,-4.98642 -0.33725,-1.53546 -2.08538,-4.65185 -3.88474,-6.92532 -1.79937,-2.27347 -3.54204,-5.36428 -3.87261,-6.86847 -0.43673,-1.98725 -0.88941,-2.44651 -1.65592,-1.68 -0.58019,0.58019 -2.19149,1.05489 -3.58067,1.05489 -1.72603,0 -2.94135,0.7765 -3.83826,2.45239 -0.95523,1.78486 -1.97929,2.38799 -3.76222,2.21577 -1.74022,-0.16809 -3.466,0.79129 -5.95858,3.31246 -3.71766,3.76027 -6.01728,3.91683 -7.10687,0.48382 -0.55876,-1.76049 -0.86838,-1.63481 -3.76602,1.52869 -2.32884,2.54249 -3.94186,3.44687 -6.14774,3.44687 -2.37108,0 -2.99052,-0.40608 -2.99052,-1.96043 0,-1.64101 -0.60144,-1.32818 -3.69136,1.92 -4.41847,4.64478 -8.39617,5.29844 -9.34073,1.53499 -0.32377,-1.28999 -0.3065,-2.80199 0.0384,-3.36 0.34487,-0.55801 0.35336,-1.45738 0.0189,-1.99859 -0.3589,-0.58073 -2.18157,0.30456 -4.44709,2.16 -8.8628,7.25851 -11.37805,7.70416 -11.37805,2.01595 v -3.32266 l -2.64,1.85942 c -1.452,1.02268 -3.72,2.17835 -5.04,2.56815 -1.32,0.3898 -4.344,1.91953 -6.72,3.39941 -5.56092,3.46358 -11.20158,5.02172 -13.57702,3.75043 -2.33138,-1.24772 -2.2697,-4.23996 0.13702,-6.64667 2.81634,-2.81635 1.02999,-2.34628 -1.95633,0.5148 -3.61602,3.46436 -10.92489,5.90433 -18.37581,6.13451 -5.69686,0.17599 -6.53596,-0.0333 -7.522245,-1.87619 -0.933472,-1.7442 -0.762133,-2.44469 1.076755,-4.4021 1.20278,-1.2803 4.2638,-3.66057 6.80225,-5.2895 2.53846,-1.62892 4.61538,-3.1106 4.61538,-3.29261 0,-0.18202 -1.62,0.34744 -3.6,1.17658 -3.94424,1.65168 -7.63042,2.13636 -21.360002,2.80855 -8.02272,0.39279 -9.50568,0.2073 -12.325562,-1.54169 -3.085609,-1.9138 -3.149385,-2.07393 -1.704344,-4.27935 1.445105,-2.2055 1.40345,-2.30997 -1.114438,-2.79474 -1.438611,-0.27698 -5.114834,-0.99067 -8.169394,-1.58599 -6.79849,-1.325 -11.29513,-4.72011 -9.74011,-7.3541 1.49823,-2.5378 7.18547,-5.08105 12.86707,-5.75395 5.572527,-0.65998 4.772673,-2.1852 -1.15872,-2.20952 -3.73412,-0.0153 -18.37059,-3.91944 -22.10532,-5.89637 -8.34301,-4.41626 -10.90594,-9.52898 -5.75788,-11.48627 1.44721,-0.55023 7.17121,-0.90474 12.71999,-0.7878 10.31303,0.21735 18.881397,-0.39695 19.912007,-1.42756 0.317185,-0.31719 -0.519021,-0.5767 -1.858238,-0.5767 -3.020009,0 -12.371179,-2.94641 -19.168059,-6.03957 -2.81435,-1.28077 -7.25124,-3.10495 -9.85975,-4.05374 -7.06729,-2.57058 -17.81725,-12.36556 -17.81725,-16.23445 0,-3.97825 3.81186,-4.99739 11.42769,-3.05532 6.63933,1.69306 8.74517,1.4083 4.29637,-0.58098 -1.52066,-0.67977 -6.30927,-4.69194 -10.64177,-8.91594 -8.48049,-8.2681 -11.60194,-13.58761 -9.87099,-16.82192 1.30981,-2.4474 3.48895,-2.39605 7.66827,0.18069 1.848,1.13938 5.01466,2.38209 7.03704,2.76159 l 3.67703,0.69001 -2.87753,-3.00519 c -1.58264,-1.65285 -3.45331,-4.36848 -4.15703,-6.03474 -0.70373,-1.66625 -3.22351,-4.49354 -5.59951,-6.28286 -4.54648,-3.42387 -5.81333,-6.54986 -3.69086,-9.10729 1.02916,-1.24005 2.64935,-1.41469 8.95369,-0.96512 4.23345,0.3019 9.30329,1.22299 11.26634,2.04687 1.96304,0.82388 4.53182,1.49796 5.70839,1.49796 1.17658,0 3.67446,1.00282 5.55084,2.2285 15.93253,10.40731 20.097709,12.90339 22.553661,13.51578 1.552135,0.38703 5.656135,2.34864 9.12,4.35913 11.17565,6.48656 14.66386,7.92792 22.551679,9.31855 12.88529,2.27169 24.71895,2.4255 30.61234,0.39787 2.79439,-0.96141 6.89041,-2.05376 9.10228,-2.42745 2.21187,-0.3737 4.26533,-1.07386 4.56326,-1.55591 0.29793,-0.48206 1.50979,-0.87647 2.69303,-0.87647 1.18324,0 2.56175,-0.39516 3.06335,-0.87813 0.5016,-0.48298 3.288,-1.16566 6.192,-1.51708 4.67975,-0.5663 5.6941,-0.35733 8.92263,1.83814 2.00345,1.36239 3.86827,2.47707 4.14405,2.47707 0.27578,0 2.04688,1.188 3.93578,2.64 3.85056,2.95994 13.66081,8.60973 20.92695,12.05198 3.61808,1.71403 7.15551,2.41838 14.28066,2.84347 l 9.47125,0.56507 2.51934,-2.99707 c 1.38563,-1.64838 2.37274,-3.64658 2.19358,-4.44043 -0.17917,-0.79385 0.2977,-1.89925 1.05971,-2.45644 0.762,-0.55719 2.29449,-2.73962 3.40554,-4.84983 3.75672,-7.13517 19.8432,-20.49405 22.0369,-18.30035 0.30269,0.30268 1.66482,-0.19547 3.02697,-1.107 3.59126,-2.40323 24.64624,-4.96052 27.53434,-3.34426 0.99715,0.55803 2.81517,0.59842 4.54936,0.10106 3.21305,-0.92149 10.33071,1.01444 12.7969,3.48062 0.78695,0.78696 1.77335,1.21914 2.19198,0.9604 0.95503,-0.59024 21.34872,12.54143 22.40313,14.42557 0.42699,0.76299 1.96213,2.00044 3.41141,2.74989 2.3724,1.22682 7.563,9.83482 9.22534,15.29914 0.43432,1.42768 1.065,1.63697 3.17312,1.05298 1.44708,-0.40087 5.65505,-0.78336 9.35105,-0.84997 5.84095,-0.10529 7.75256,-0.64214 14.61352,-4.10409 4.34144,-2.19062 10.31685,-5.63396 13.2787,-7.65185 2.96185,-2.01789 6.10577,-4.09235 6.98648,-4.60992 0.88072,-0.51756 3.6998,-2.21244 6.26464,-3.76639 3.89183,-2.35792 4.96581,-2.63646 6.4916,-1.68359 1.00554,0.62797 2.82709,0.89107 4.04789,0.58467 1.40386,-0.35234 2.67769,-0.005 3.46595,0.94462 0.68547,0.82595 2.46392,1.50172 3.95211,1.50172 1.48819,0 2.97279,0.432 3.29911,0.96 0.32632,0.528 1.53982,0.96551 2.69666,0.97225 1.15683,0.007 5.34334,1.00734 9.30334,2.22356 6.25754,1.92185 8.33095,2.1231 15.84,1.5375 19.38858,-1.51205 23.85965,-2.80509 38.09869,-11.01816 4.07651,-2.35133 8.13826,-4.27515 9.0261,-4.27515 0.88783,0 6.56363,-3.296 12.61288,-7.32445 6.12375,-4.07807 12.76792,-7.73111 14.99048,-8.24195 2.19552,-0.50461 4.85585,-1.31445 5.91185,-1.79962 2.96571,-1.36259 13.80203,-2.57561 17.05867,-1.90956 3.66355,0.74928 5.43052,3.24254 3.96557,5.59558 -0.57526,0.924 -2.94905,3.13301 -5.27509,4.9089 -2.32603,1.7759 -4.60619,4.3679 -5.06701,5.76 -0.46082,1.39211 -2.16557,3.9351 -3.78832,5.6511 -2.72228,2.8787 -2.79408,3.12 -0.92834,3.12 1.11217,0 4.7333,-1.28218 8.04695,-2.8493 6.6449,-3.14254 8.57923,-2.7408 8.50733,1.76685 -0.0614,3.84743 -2.83632,8.17451 -7.92936,12.36454 -2.53527,2.08577 -5.29134,4.76564 -6.12458,5.95526 -0.83325,1.18963 -3.51093,3.46878 -5.95041,5.0648 -2.43948,1.59601 -3.57141,2.59386 -2.51541,2.21743 9.80822,-3.4963 17.05696,-2.87129 17.56995,1.51494 0.50949,4.35631 -16.83524,18.12548 -22.83229,18.12548 -1.08836,0 -3.59138,1.06713 -5.56227,2.37141 -3.81519,2.52477 -18.09842,6.55921 -19.8248,5.59971 -0.56682,-0.31504 -0.49625,0.003 0.15684,0.70748 0.86291,0.93036 5.30061,1.37618 16.23722,1.6312 8.27738,0.19301 15.86925,0.78949 16.87082,1.32552 3.15499,1.68849 1.65795,4.87634 -4.0837,8.69599 -6.24827,4.15669 -17.60021,7.58068 -27.81177,8.38862 l -7.2,0.56967 6.24,0.7838 c 6.82493,0.85726 13.16906,3.26497 15.25249,5.78859 1.152,1.3954 1.08698,1.8896 -0.48,3.64851 -2.58569,2.90239 -6.85208,4.47304 -14.19324,5.22516 -6.10715,0.6257 -6.32146,0.73282 -4.80919,2.40385 4.05992,4.48617 -2.94811,8.00822 -14.43666,7.25548 -9.7216,-0.63696 -17.90077,-2.02042 -20.65289,-3.49331 -1.16872,-0.62548 -2.32929,-0.93291 -2.57903,-0.68317 -0.24974,0.24974 2.10893,2.01102 5.2415,3.91395 7.78767,4.73077 8.49834,5.70576 6.4441,8.84094 -1.54429,2.35688 -1.98837,2.47478 -7.6064,2.01942 -8.55189,-0.69317 -13.46169,-2.41486 -18.09981,-6.34696 -3.66627,-3.10818 -3.85371,-3.17447 -1.91273,-0.6764 2.76966,3.56458 2.74835,5.99269 -0.0588,6.69723 -3.57909,0.89829 -7.51505,-0.21118 -13.29405,-3.74733 -2.98358,-1.82565 -6.00758,-3.32098 -6.72,-3.32295 -0.71241,-0.002 -2.67357,-0.84398 -4.35812,-1.87112 l -3.06282,-1.86753 -0.29718,3.06326 c -0.44466,4.58343 -2.7556,4.30139 -9.84656,-1.20174 l -6.29062,-4.882 v 4.37149 c 0,2.87578 -0.46305,4.54917 -1.35335,4.89082 -1.93708,0.74332 -6.98608,-2.10841 -8.8973,-5.02531 -1.59855,-2.43969 -1.64263,-2.44822 -2.37811,-0.46002 -1.22318,3.30657 -4.91362,2.55063 -8.85703,-1.81426 -1.90807,-2.112 -3.65629,-3.84 -3.88494,-3.84 -0.22865,0 -0.55378,0.96758 -0.7225,2.15019 -0.48036,3.36693 -3.3643,3.14428 -7.0531,-0.54452 -2.19977,-2.19977 -3.95948,-3.18227 -5.14458,-2.87236 -1.58775,0.41521 -5.86838,-2.81878 -5.86944,-4.43433 -2e-4,-0.29644 -2.12988,-0.62874 -4.73263,-0.73845 -4.49977,-0.18967 -4.76219,-0.0632 -5.34135,2.57367 -0.7169,3.26402 -2.78774,5.25299 -4.70372,4.51776 -0.89497,-0.34343 -1.74998,0.5256 -2.49173,2.5326 -2.56961,6.95274 -6.54622,14.19396 -9.55161,17.39305 -2.3194,2.46889 -2.4473,4.16199 -0.50808,6.72587 0.77521,1.02492 1.40947,2.83542 1.40947,4.02334 0,1.18793 0.432,2.42685 0.96,2.75318 1.57857,0.97561 1.09044,3.90437 -0.96,5.76 -1.056,0.95566 -1.92,2.08192 -1.92,2.50279 0,0.42087 1.89011,3.48592 4.20024,6.81121 5.91141,8.50913 8.29855,13.60084 8.94823,19.08638 0.65569,5.53627 -1.23865,8.55446 -5.37726,8.56741 -2.36171,0.007 -2.49925,0.28384 -2.64585,5.31823 -0.16639,5.71385 -2.00055,9.5222 -5.05258,10.49088 -2.79506,0.88711 -9.1636,-1.11242 -12.50913,-3.92749 l -2.92365,-2.46009 -0.0542,3.68534 c -0.1737,11.81417 -7.12532,15.92842 -16.67764,9.87052 -4.59549,-2.91437 -4.64195,-2.9219 -6.66795,-1.07997 -4.75267,4.32085 -8.93362,5.04642 -13.33977,2.31503 z m 12.16164,-6.12108 2.7821,-3.08753 -0.521,-13.98582 c -0.5534,-14.8553 -0.3893,-16.38581 1.7568,-16.38581 1.11702,0 1.36,2.76141 1.36,15.456 v 15.456 l 3.264,3.264 c 2.2504,2.25039 4.15167,3.264 6.12246,3.264 4.76211,0 5.44539,-1.85562 5.97354,-16.22272 0.3771,-10.25795 0.76524,-13.05728 1.8105,-13.05728 0.79983,0 1.84065,1.99344 2.60959,4.99805 2.20639,8.62145 3.74905,11.35974 7.36689,13.07652 5.56366,2.64013 7.18546,2.17569 8.42065,-2.41144 1.47794,-5.48865 0.69233,-8.41282 -3.86699,-14.39357 -3.65267,-4.79144 -4.62238,-8.43056 -2.42064,-9.08415 0.528,-0.15674 2.79527,2.24285 5.03837,5.33241 4.31766,5.94698 6.79393,7.35844 9.47294,5.3995 1.54621,-1.13062 1.5437,-1.49736 -0.0437,-6.37846 -1.76868,-5.43859 -6.48957,-13.75257 -10.57227,-18.61886 -2.3914,-2.85037 -2.42255,-2.85778 -3.02777,-0.72 -0.805,2.84342 -1.95352,2.7414 -2.70181,-0.24 -0.77669,-3.09461 -2.10967,-2.99435 -6.73679,0.5067 -4.9674,3.75853 -6.30899,3.66454 -6.30899,-0.44201 0,-4.25687 -2.97985,-5.52744 -6.09651,-2.59949 -2.65812,2.49717 -3.98766,1.64613 -5.35022,-3.42467 -0.597,-2.22171 -1.53026,-4.31438 -2.07392,-4.65038 -2.23712,-1.38261 -5.50388,0.70925 -8.41114,5.38606 -3.16521,5.09175 -4.76648,5.60451 -6.37585,2.04168 -1.10609,-2.44865 -2.6514,-2.68332 -4.33236,-0.65789 -0.6573,0.792 -1.79019,1.44 -2.51754,1.44 -0.8294,0 -1.32246,1.07377 -1.32246,2.88 0,3.86633 -1.39719,3.62868 -6.05595,-1.03008 l -3.91008,-3.91007 -1.7644,2.23007 c -8.35174,10.55594 -15.44622,24.8601 -13.71736,27.65746 0.33061,0.53494 1.84784,0.97262 3.37162,0.97262 2.2745,0 3.47818,-0.98826 6.72329,-5.52 2.17403,-3.036 4.46581,-5.52 5.09283,-5.52 2.57472,0 1.41101,4.14673 -2.68877,9.58111 -4.59389,6.08935 -5.25722,9.07592 -3.27726,14.75563 1.25151,3.59009 3.17816,3.84177 8.5256,1.1137 3.75502,-1.91566 4.66164,-3.78423 8.31149,-17.13028 0.1925,-0.7039 0.88978,-1.10114 1.5495,-0.88273 0.84773,0.28064 1.34026,4.20356 1.67949,13.37711 0.55571,15.02722 1.2438,16.65509 6.67547,15.79268 2.16527,-0.34378 4.41723,-1.66441 6.18663,-3.62806 z m -7.4061,-5.28316 c -0.98352,-0.98352 -0.79004,-5.136 0.23931,-5.136 1.30457,0 2.3283,3.88039 1.29606,4.91263 -0.48365,0.48365 -1.17457,0.58417 -1.53537,0.22337 z m 19.02837,-0.32894 c -0.78014,-1.2623 0.32621,-4.80706 1.50032,-4.80706 1.1651,0 1.16651,4.51907 0.002,5.239 -0.49152,0.30377 -1.1674,0.1094 -1.50197,-0.43194 z m 20.33163,-11.19106 c -0.98352,-0.98352 -0.79004,-5.136 0.23931,-5.136 1.30457,0 2.3283,3.88039 1.29606,4.91263 -0.48365,0.48365 -1.17457,0.58417 -1.53537,0.22337 z m -57.51175,-2.412 c -0.69445,-2.06525 0.32306,-4.644 1.83241,-4.644 0.99767,0 1.20762,0.6127 0.74014,2.16 -0.88258,2.92122 -2.04735,4.0459 -2.57255,2.484 z m 38.61575,-4.70066 c 0,-1.71331 0.39992,-2.6895 0.96,-2.34334 0.528,0.32632 0.96,1.64781 0.96,2.93665 0,1.28884 -0.432,2.34335 -0.96,2.34335 -0.528,0 -0.96,-1.3215 -0.96,-2.93666 z m -22.08,-2.18483 c 0,-2.20465 1.05936,-4.47851 2.08648,-4.47851 1.34264,0 0.53082,5.06057 -0.88648,5.52596 -0.66,0.21672 -1.2,-0.25463 -1.2,-1.04745 z m -22.08,-10.53503 c 0,-2.6627 2.41401,-6.24947 3.48517,-5.17831 0.41918,0.41918 0.23851,1.60064 -0.40151,2.62546 -0.64001,1.02482 -1.16366,2.51718 -1.16366,3.31634 0,0.79916 -0.432,1.45303 -0.96,1.45303 -0.528,0 -0.96,-0.99744 -0.96,-2.21652 z m 24.67268,-1.81043 c -0.60236,-4.49092 0.53496,-7.49305 2.83865,-7.49305 1.19866,0 1.28532,0.28731 0.40615,1.34664 -0.61469,0.74065 -0.75304,1.49665 -0.30745,1.68 0.99955,0.41128 -0.54212,8.49336 -1.62012,8.49336 -0.42741,0 -1.02016,-1.81213 -1.31723,-4.02695 z m 20.99945,2.3342 c -0.29549,-0.93102 -0.72673,-3.714 -0.95831,-6.1844 -0.34213,-3.64984 -0.15861,-4.39094 0.97924,-3.95431 2.19385,0.84187 3.00574,3.32243 2.53704,7.75146 -0.44751,4.22878 -1.62478,5.32748 -2.55797,2.38725 z m 23.44787,0.0883 c 0,-0.88243 -0.72419,-2.40464 -1.60931,-3.38269 -1.13422,-1.25329 -1.30873,-2.07887 -0.5911,-2.79649 0.71762,-0.71762 1.47612,-0.36445 2.56931,1.19629 1.71857,2.4536 2.0895,6.5873 0.5911,6.5873 -0.528,0 -0.96,-0.72199 -0.96,-1.60441 z m -48.81982,-22.39555 c 0.4509,0 0.82644,-0.54 0.83452,-1.2 0.0365,-2.97511 1.48853,-3.70261 4.37983,-2.1943 2.41784,1.26131 2.84702,1.27226 3.10618,0.0792 0.77657,-3.57504 -1.49271,-4.97916 -10.08752,-6.24166 -4.64925,-0.68293 -9.70032,-1.87772 -11.22458,-2.65508 -2.6707,-1.36204 -2.88462,-1.29666 -5.88717,1.79921 -3.05286,3.14774 -5.21673,8.4926 -3.43824,8.4926 0.49487,0 1.53162,0.24246 2.30388,0.5388 0.94466,0.3625 1.73932,-0.42281 2.42857,-2.4 0.56623,-1.62428 1.71038,-2.9388 2.55792,-2.9388 1.23583,0 1.40972,0.65947 0.89597,3.39799 -0.35061,1.86889 -0.26218,3.31908 0.1965,3.22265 1.61308,-0.33913 6.92599,2.16905 7.44179,3.51322 0.40558,1.05691 1.09529,0.82819 3.09715,-1.02708 1.41646,-1.31273 2.9443,-2.38678 3.3952,-2.38678 z m 44.97982,-0.58044 c 0,-1.77098 2.8553,-2.93284 3.72988,-1.51775 0.42627,0.68972 1.06776,0.40243 1.83125,-0.82011 0.67157,-1.07536 0.77084,-1.8817 0.23166,-1.8817 -0.51892,0 -1.58015,-1.23118 -2.3583,-2.73596 -1.63283,-3.15754 -7.149,-6.24328 -8.76427,-4.90273 -0.62026,0.51477 -2.26007,0.53519 -3.95448,0.0492 -5.38343,-1.54395 -17.31879,5.8911 -14.44718,8.99977 0.64429,0.69748 1.48651,1.07752 1.8716,0.84452 0.38509,-0.233 1.54687,0.0295 2.58174,0.58336 1.2493,0.6686 2.0815,0.68352 2.4765,0.0444 0.99844,-1.61551 3.49372,-1.07491 3.3114,0.71741 -0.36426,3.58096 -0.0187,4.53292 1.2022,3.312 1.54717,-1.54717 4.12061,-1.45601 5.4904,0.19449 0.95725,1.15342 1.52473,1.14334 3.95755,-0.0703 1.56203,-0.77924 2.84005,-2.04673 2.84005,-2.81662 z m -27.36,-5.17956 c 0.7509,-1.21498 -0.51996,-1.21498 -2.4,0 -1.24098,0.80198 -1.21564,0.93263 0.18335,0.9453 0.89284,0.008 1.89033,-0.4173 2.21665,-0.9453 z m 0.45068,-5.85187 c 2.53298,-2.03556 4.29554,-2.78224 5.5944,-2.37 1.27227,0.4038 2.88003,-0.22589 4.88561,-1.91347 3.77718,-3.17829 3.8781,-4.68546 0.17129,-2.55804 -1.54992,0.88953 -3.12963,1.30573 -3.51047,0.92488 -1.06183,-1.06182 4.24151,-5.51532 5.83816,-4.90263 0.88801,0.34076 1.81536,-0.35968 2.51805,-1.90192 0.61179,-1.34273 1.70183,-2.66754 2.42231,-2.94401 1.99019,-0.76371 1.64999,3.94361 -0.37003,5.12016 -1.82269,1.06162 -1.80421,1.07876 1.55901,1.44523 1.5314,0.16687 3.49966,-0.91284 6,-3.29136 4.41684,-4.20163 5.05107,-7.04683 0.76734,-3.44231 -3.16284,2.66135 -4.72635,3.13226 -4.72635,1.4235 0,-1.3986 4.8487,-5.16831 6.70624,-5.21389 0.80083,-0.0196 1.96899,-0.35273 2.59591,-0.74019 0.64784,-0.40039 1.52365,-0.0187 2.02902,0.88439 0.71634,1.28003 1.42754,0.45365 3.659,-4.25161 2.66503,-5.61949 4.554,-7.27036 5.42003,-4.73686 0.3978,1.16371 2.6298,-9.86215 2.6298,-12.99094 0,-0.85451 0.64446,-1.91432 1.43214,-2.35512 1.1116,-0.62208 1.2367,-1.48289 0.55897,-3.84601 -0.48024,-1.6745 -0.64232,-3.92731 -0.36017,-5.00624 0.79733,-3.04899 -0.11244,-2.38296 -4.4827,3.28171 -2.22489,2.88387 -4.97743,5.52441 -6.11675,5.86787 -1.13932,0.34346 -3.88806,2.5736 -6.10832,4.95587 -2.6517,2.8452 -4.54964,4.13462 -5.53137,3.7579 -1.62883,-0.62504 -6.17802,1.07547 -7.7118,2.8827 -0.528,0.62214 -3.66255,1.80712 -6.96568,2.6333 -3.30312,0.82618 -7.07738,2.20435 -8.38724,3.0626 -1.69915,1.11333 -3.5543,1.40023 -6.47432,1.00127 -2.25102,-0.30755 -7.11676,-0.84041 -10.81276,-1.18414 -3.696,-0.34372 -7.19485,-1.00084 -7.77522,-1.46025 -0.58037,-0.45942 -3.37985,-1.27616 -6.22106,-1.81499 -3.90379,-0.74034 -6.10859,-1.87463 -9.02478,-4.64294 -6.9024,-6.55239 -18.64364,-15.47344 -19.19369,-14.58344 -0.29511,0.4775 -0.17898,1.08918 0.25807,1.35929 0.43705,0.27011 0.37786,3.01117 -0.13153,6.09124 -1.04812,6.3375 -0.0437,14.7771 1.32925,11.16855 0.89323,-2.34778 2.48494,-3.60772 3.16585,-2.50598 0.25276,0.40897 0.57637,2.90002 0.71915,5.53566 0.32637,6.02473 1.6473,10.07209 3.28721,10.07209 0.69598,0 2.64515,1.74205 4.33149,3.87123 2.4286,3.06635 3.49326,3.74015 5.12067,3.24075 2.82271,-0.86621 2.79507,-0.74253 0.90259,-4.03998 -2.5495,-4.44226 -1.06907,-4.52491 3.65047,-0.20379 2.32184,2.12583 4.77789,3.65343 5.45787,3.39465 1.52241,-0.57936 2.71733,2.16747 1.4808,3.404 -0.55707,0.55707 -2.13358,-0.0139 -4.15398,-1.50453 -4.49519,-3.31645 -4.80495,-3.00606 -0.95951,0.96143 2.08479,2.15096 3.84476,3.17826 4.88135,2.84926 0.89158,-0.28298 3.16698,0.39761 5.05643,1.51242 4.335,2.55771 6.15561,1.67439 3.50203,-1.6991 -2.68809,-3.41734 -1.85236,-3.6917 2.41796,-0.79379 1.98358,1.3461 4.0608,2.44745 4.61603,2.44745 0.55524,0 0.17095,0.67899 -0.85396,1.50888 -1.77294,1.43556 -1.71781,1.48456 1.13462,1.00838 2.33693,-0.39013 3.48532,0.0181 5.20734,1.85112 2.87076,3.05577 4.10184,2.96663 8.56523,-0.62025 z m -29.10189,-11.26372 c -1.47401,-1.62877 -2.15769,-4.00441 -1.15242,-4.00441 0.56886,0 5.32363,4.75477 5.32363,5.32363 0,1.12138 -2.74944,0.25182 -4.17121,-1.31922 z m -16.98893,-8.87943 c -0.58724,-1.09726 -0.78939,-2.71726 -0.44922,-3.6 0.53577,-1.39034 0.7227,-1.41241 1.3978,-0.16498 0.42862,0.792 1.07668,2.412 1.44013,3.6 0.83928,2.74334 -0.94294,2.86643 -2.38871,0.16498 z m 73.00014,-2.6215 c 0,-1.40042 2.70802,-4.51546 3.35929,-3.86419 0.80908,0.80908 -1.19979,4.64071 -2.43306,4.64071 -0.50943,0 -0.92623,-0.34943 -0.92623,-0.77652 z m -66.4009,17.98976 c -1.29317,-0.34584 -3.38985,-1.18467 -4.65928,-1.86404 -2.27347,-1.21673 -2.28597,-1.20073 -0.83458,1.06778 0.81042,1.26666 1.7888,2.83822 2.17418,3.49235 0.53747,0.91226 1.27964,0.81 3.1858,-0.43897 l 2.4851,-1.6283 z m 73.33513,-6.22415 c 5.34983,-7.86869 5.94651,-10.04441 1.24985,-4.55742 -1.83475,2.1435 -5.50675,5.29029 -8.16,6.99287 -4.62677,2.969 -6.25333,4.60933 -3.53702,3.56699 0.70788,-0.27164 1.89588,-0.10889 2.64,0.36168 2.1693,1.37182 3.01792,0.68006 7.80717,-6.36412 z m -204.51733,-3.43773 c 0.88928,-0.45725 2.46099,-0.83136 3.49267,-0.83136 1.03168,0 3.84349,-1.93988 6.24847,-4.31084 2.40499,-2.37096 4.93728,-4.10662 5.62733,-3.85703 0.69005,0.24959 2.33464,-0.38695 3.65464,-1.41454 l 2.4,-1.86833 -3.69608,0.58657 c -2.51134,0.39855 -3.9397,0.19238 -4.45612,-0.6432 -1.27004,-2.05497 0.73043,-7.06302 3.89694,-9.75573 1.64482,-1.3987 3.55257,-3.62633 4.23945,-4.9503 l 1.24887,-2.40721 -5.89653,2.78955 c -3.24309,1.53425 -6.76053,2.80051 -7.81653,2.81391 -1.056,0.0134 -4.47106,0.87774 -7.58902,1.92075 -3.11796,1.04302 -7.65396,1.90152 -10.08,1.90779 -5.05228,0.013 -11.303181,1.63248 -20.250982,5.24645 -11.204979,4.52563 -10.461674,3.9768 -7.2,5.31631 2.241862,0.92069 4.688058,0.93854 11.04,0.0805 15.699992,-2.12071 17.795242,-2.59874 22.560002,-5.14702 7.17018,-3.83475 12.00094,-5.82673 12.62266,-5.205 0.95192,0.95191 -12.42477,14.10621 -16.46266,16.18898 -5.01862,2.58863 -6.3373,3.69425 -5.67818,4.76074 0.60405,0.97737 9.58223,0.071 12.09507,-1.22103 z m 19.73971,0.15601 c 2.24212,-1.01775 5.99011,-3.16699 8.32885,-4.77608 2.33874,-1.6091 4.82427,-2.70965 5.5234,-2.44566 0.69913,0.26399 4.29515,-2.16371 7.99115,-5.39488 6.46516,-5.65206 11.71211,-8.82199 13.14085,-7.93898 0.37393,0.2311 -1.2782,2.22508 -3.6714,4.43106 -4.39855,4.05443 -8.69234,10.9565 -7.53379,12.1102 0.34629,0.34483 1.34842,-0.25114 2.22697,-1.32439 4.03976,-4.93501 19.53758,-14.02842 21.15388,-12.41213 0.28884,0.28885 -1.40121,2.26389 -3.75567,4.38898 -2.35446,2.12509 -3.74084,3.59322 -3.08084,3.2625 2.50435,-1.2549 3.13901,0.62891 1.152,3.4194 -3.85843,5.41868 -0.35603,2.69798 8.1052,-6.29618 7.60323,-8.08213 10.18279,-9.91319 10.18279,-7.22809 0,0.4564 -1.43684,2.71218 -3.19298,5.01286 -3.86312,5.06096 -5.20045,8.89339 -2.62179,7.51333 0.92223,-0.49356 2.89026,-2.53806 4.37341,-4.54335 7.50193,-10.14293 12.33373,-13.06011 9.08725,-5.48637 -1.03724,2.41977 -1.88589,5.10777 -1.88589,5.97333 0,2.34275 3.51422,-1.43371 6.62306,-7.11728 2.75157,-5.03042 5.69939,-7.09695 4.48502,-3.14417 -0.3867,1.25869 -0.9295,3.36853 -1.20623,4.68853 -0.48578,2.31713 -0.45474,2.3337 0.89907,0.48 0.77123,-1.056 2.14724,-4.188 3.05781,-6.96 1.9714,-6.00145 3.42127,-6.50998 3.42127,-1.2 0,3.73572 1.11193,4.96414 2.48395,2.74417 0.37249,-0.60271 0.83964,-3.04506 1.03811,-5.42745 0.19846,-2.3824 1.2972,-5.99766 2.44165,-8.03392 1.36039,-2.4205 1.75473,-4.02836 1.139,-4.6441 -0.95353,-0.95353 -6.85048,-2.42631 -14.83986,-3.7063 -2.40744,-0.3857 -5.64744,-1.5966 -7.2,-2.69089 -1.55257,-1.09429 -3.83729,-2.30488 -5.07718,-2.6902 -1.23988,-0.38531 -4.56131,-2.70999 -7.38095,-5.16594 -8.59877,-7.48967 -14.0405,-11.4809 -19.94159,-14.62615 -3.73503,-1.99075 -5.31805,-3.3283 -4.68653,-3.95982 2.28923,-2.28922 7.89426,0.62075 21.31297,11.06508 3.2678,2.54347 6.1723,4.39365 6.45444,4.11152 0.28213,-0.28214 2.49017,1.22743 4.90675,3.35458 2.5936,2.28298 5.05932,3.69352 6.01818,3.44277 0.89342,-0.23363 4.52641,1.03578 8.07331,2.82093 3.5469,1.78514 7.0449,3.24572 7.77333,3.24572 1.58709,0 1.70927,-2.71026 0.2893,-6.41751 -1.65632,-4.32432 -1.83159,-16.41875 -0.30081,-20.75744 0.74604,-2.1145 1.10073,-4.10116 0.78821,-4.4148 -0.31252,-0.31364 -4.96113,-0.69127 -10.33025,-0.83918 -11.93237,-0.32873 -14.23831,-0.77588 -13.87784,-2.69111 0.18112,-0.96237 -1.37205,-2.16691 -4.52418,-3.50863 -2.64,-1.12373 -8.64911,-4.55153 -13.35357,-7.61733 -6.4271,-4.18842 -8.86293,-5.31745 -9.79795,-4.54145 -0.68441,0.56801 -1.69436,0.75464 -2.24434,0.41473 -1.66375,-1.02825 -10.83335,-1.50891 -11.95568,-0.6267 -0.57665,0.45328 -3.76391,1.05802 -7.08278,1.34386 -3.31888,0.28584 -7.08368,1.20728 -8.36623,2.04764 -2.83705,1.8589 -16.49348,2.06488 -31.4018,0.47361 -8.898129,-0.94975 -10.924842,-1.56131 -20.437652,-6.1671 l -10.56,-5.1128 4.08,3.55328 c 4.605315,4.01078 4.983221,4.94093 2.007431,4.94093 -1.266826,0 -4.388849,-2.33259 -8.030613,-6 -6.37457,-6.41946 -8.647046,-8.4 -9.638156,-8.4 -0.3423,0 -2.2587,-1.296 -4.25866,-2.88 -1.99997,-1.584 -3.94396,-2.88 -4.32,-2.88 -0.37604,0 -2.25787,-1.22351 -4.18185,-2.71891 -5.59928,-4.35199 -6.75483,-4.55942 -2.05815,-0.36946 4.50583,4.0197 4.70922,6.31178 0.35321,3.98051 -1.38814,-0.74291 -4.36249,-2.96914 -6.60967,-4.94718 -4.18588,-3.68456 -12.48904,-6.45923 -19.42354,-6.49077 -4.18452,-0.019 -3.92926,1.12482 0.96,4.3018 5.10746,3.31877 9.99072,8.43377 8.51976,8.92409 -3.30956,1.10319 7.92767,10.44049 17.49968,14.54094 3.25379,1.39385 4.49781,2.4172 4.12367,3.3922 -0.39034,1.01722 0.89085,1.8459 4.72007,3.05296 5.29279,1.6684 6.38232,3.42991 2.47648,4.00388 -1.89032,0.27779 -10.29136,-3.31241 -23.46122,-10.0262 -2.53086,-1.29019 -4.9799,-2.11198 -5.44231,-1.82619 -0.46242,0.28579 -2.92771,-0.74381 -5.47844,-2.28799 -5.08962,-3.08119 -8.95969,-4.49641 -8.9541,-3.27437 0.01,2.18062 4.30123,7.30751 9.05735,10.82106 2.93648,2.16931 5.33906,4.474 5.33906,5.12154 0,1.89829 14.75756,11.24209 17.75572,11.24209 0.19291,0 0.48879,-0.972 0.65751,-2.16 0.26803,-1.88724 1.08388,-2.25574 6.4606,-2.91817 3.84025,-0.47313 6.5122,-0.3998 7.10706,0.19507 0.57911,0.5791 1.57951,0.61807 2.548877,0.0993 0.93784,-0.50192 3.15281,-0.48859 5.372932,0.0323 2.077515,0.48745 6.213955,0.62551 9.19209,0.30679 6.147217,-0.65788 14.663084,1.59514 15.638669,4.13747 0.484533,1.26267 0.06002,1.40363 -2.556218,0.84878 -8.402226,-1.78195 -9.377242,-1.80141 -9.377242,-0.18716 0,1.92381 -0.617911,1.93984 -5.696932,0.14786 -3.87819,-1.3683 -3.997322,-1.35157 -3.416006,0.48 0.712528,2.24498 -0.34236,2.38456 -4.597896,0.60841 -1.699041,-0.70914 -5.999114,-1.86719 -9.555714,-2.57345 -12.20061,-2.42276 -9.11297,1.53352 5.665876,7.25986 5.137674,1.99068 10.875601,3.73322 12.750949,3.8723 1.875347,0.13908 4.581893,0.70365 6.014546,1.25461 3.487114,1.34105 15.550669,1.49909 20.915179,0.274 5.09973,-1.16463 26.88,-1.1319 26.88,0.0404 0,1.71625 -5.32746,2.6847 -15.1825,2.75993 -9.41265,0.0719 -10.01692,0.18401 -7.33655,1.36154 4.64805,2.04196 21.32024,4.56123 29.95636,4.52658 4.35452,-0.0175 8.14662,0.33926 8.42689,0.79273 0.86162,1.39413 -3.02964,2.84084 -7.64109,2.84084 -2.41071,0 -4.38311,0.432 -4.38311,0.96 0,0.528 -0.84801,0.96 -1.88446,0.96 -1.63661,0 -6.25812,1.54046 -12.99554,4.33173 -3.29843,1.36652 8.7173,2.34165 17.77607,1.44261 7.94485,-0.78849 10.56564,-1.50713 16.98603,-4.6577 4.05259,-1.98867 5.294,-0.59245 1.99666,2.24565 -3.03848,2.61529 -11.49492,5.28042 -18.99876,5.98767 -2.904,0.27371 -6.36,1.22129 -7.68,2.10575 -2.8874,1.93469 -9.07996,4.50962 -12.74339,5.29884 -1.46486,0.31558 -4.27286,2.10851 -6.24,3.98429 -1.96714,1.87578 -4.76461,4.03601 -6.21661,4.80049 -1.452,0.76449 -2.64,1.65361 -2.64,1.97582 0,1.20796 8.4444,-0.63285 13.36855,-2.91424 2.81154,-1.30261 5.65124,-2.16141 6.31044,-1.90845 1.33066,0.51062 12.35411,-4.83887 15.36101,-7.45443 1.056,-0.91857 3.12341,-2.12607 4.59425,-2.68334 2.15585,-0.8168 2.78269,-0.7306 3.23368,0.44467 0.34114,0.88897 1.23438,1.24365 2.28906,0.90891 0.9513,-0.30193 2.67221,-0.73049 3.82426,-0.95236 1.15205,-0.22186 2.59056,-0.79883 3.19669,-1.28215 0.60613,-0.48332 2.18206,-1.19873 3.50206,-1.58981 1.32,-0.39107 3.15864,-1.37729 4.08588,-2.19161 2.04631,-1.79709 3.4421,-0.75393 2.0254,1.51371 -1.35724,2.17246 -10.20947,6.58227 -16.19128,8.06583 -5.52358,1.36991 -11.77629,5.47976 -10.00365,6.57532 0.76141,0.47057 0.22317,1.28781 -1.62974,2.47451 -3.64023,2.33141 -4.99354,4.17276 -4.48789,6.10638 0.2527,0.9663 -0.45121,1.99561 -1.81281,2.65083 -1.22425,0.58913 -1.78042,1.10038 -1.23592,1.13611 1.29197,0.0848 20.03065,-10.57827 20.45674,-11.64071 0.1797,-0.44809 1.51128,-1.42726 2.95907,-2.17594 1.44779,-0.74868 4.47379,-2.89973 6.72445,-4.78011 4.12338,-3.44498 6.90255,-3.81816 4.64004,-0.62305 -0.66566,0.94005 -3.89809,3.94128 -7.18317,6.66941 -5.47865,4.54979 -8.66005,8.38245 -7.73004,9.31246 0.5331,0.53311 9.13799,-4.12726 13.93194,-7.54547 3.03598,-2.16474 3.81461,-3.20788 3.06691,-4.10881 -0.76192,-0.91805 0.40363,-1.83835 4.86267,-3.83944 3.22563,-1.44758 6.6597,-3.64253 7.63125,-4.87766 0.97156,-1.23514 2.2443,-2.2457 2.82831,-2.2457 2.16613,0 0.95673,2.77477 -2.3647,5.42545 -1.8846,1.504 -6.07859,5.20632 -9.31998,8.22738 -10.09367,9.40756 -23.20323,14.98221 -24.40706,10.37876 -0.54958,-2.10161 -1.73091,-2.53765 -2.68642,-0.9916 -0.32633,0.528 -0.0997,0.96 0.50365,0.96 0.98791,0 -11.33688,12.21616 -17.30365,17.15114 -3.10907,2.57143 -0.92883,2.64619 4.5566,0.15623 z m 297.31539,1.08795 c -8.83357,-7.79407 -18.19291,-17.19764 -18.19607,-18.28206 -0.002,-0.76779 -0.49777,-1.56054 -1.10118,-1.76168 -0.60341,-0.20113 -1.03357,0.41148 -0.95593,1.36136 0.23004,2.81406 -5.15915,2.70784 -11.3562,-0.22384 -2.95725,-1.399 -8.57458,-5.42036 -12.48297,-8.93637 -3.90838,-3.516 -8.42769,-7.39759 -10.0429,-8.62575 -1.61521,-1.22816 -2.93675,-3.09308 -2.93675,-4.14427 0,-1.66741 0.5505,-1.46016 4.3147,1.62432 2.37309,1.94457 5.93709,4.09448 7.92,4.77758 2.26632,0.78073 3.60749,1.84991 3.6112,2.87884 0.007,2.01944 4.53325,5.88073 10.96423,9.354 5.7229,3.09086 7.24403,3.33214 5.94212,0.94255 -1.22964,-2.25694 -3.7917,-4.76342 -9.56756,-9.36 -4.66856,-3.71537 -6.46104,-6.00365 -5.47512,-6.98957 0.26112,-0.26112 4.05129,2.10232 8.42259,5.25209 12.8443,9.25503 16.7098,11.73224 21.53421,13.80022 4.26494,1.82816 4.45448,1.83878 2.93938,0.16461 -1.05119,-1.16155 -1.29131,-2.1178 -0.68422,-2.72488 0.60708,-0.60708 0.22346,-1.42787 -1.09315,-2.33889 -4.99829,-3.45856 -6.12359,-4.71447 -4.93298,-5.50553 1.55319,-1.03197 -5.98457,-5.97805 -9.11048,-5.97805 -2.89594,0 -15.63911,-5.87182 -17.40172,-8.01839 -2.33855,-2.84798 -0.3373,-2.87975 5.38449,-0.0855 7.67802,3.7496 13.71231,5.34943 13.71231,3.63546 0,-2.14424 2.22194,-1.48596 8.70598,2.57926 7.37484,4.62372 12.03601,6.81524 15.29139,7.18949 1.32145,0.15191 5.39389,1.41767 9.04987,2.81279 3.65598,1.39511 7.51836,2.40839 8.58308,2.25172 1.60513,-0.23619 1.27898,-0.71805 -1.90918,-2.82064 -2.11476,-1.39468 -5.18792,-3.87868 -6.82924,-5.52 -1.71476,-1.71476 -3.98465,-2.98421 -5.33602,-2.98421 -2.52884,0 -9.61361,-2.9545 -12.56551,-5.24009 -0.99529,-0.77063 -3.80329,-1.64686 -6.23999,-1.94718 -12.50355,-1.54103 -22.19038,-5.33201 -22.19038,-8.68429 0,-1.20655 0.63425,-1.12389 3.81072,0.49662 2.0959,1.06925 6.0919,2.52352 8.88,3.23171 5.96661,1.51556 21.43843,2.03586 24.69675,0.83053 2.10453,-0.77851 1.92396,-0.96628 -2.43727,-2.53426 -2.59061,-0.9314 -6.1142,-1.91612 -7.8302,-2.18828 -1.716,-0.27215 -3.12,-0.87956 -3.12,-1.34979 0,-0.47024 -1.62,-0.86134 -3.6,-0.86912 -3.92931,-0.0155 -8.26985,-1.82189 -8.03944,-3.34585 0.0876,-0.57918 3.1394,-0.828 7.69333,-0.62725 4.15151,0.18302 10.08573,-0.15521 13.18715,-0.75162 11.3754,-2.1875 19.55896,-4.20385 19.55896,-4.81911 0,-0.34716 -5.19001,-0.63423 -11.53334,-0.63795 -11.67787,-0.007 -15.16633,-0.92841 -12.73139,-3.36334 0.7937,-0.79371 1.88547,-0.79822 4.12629,-0.0171 2.12011,0.73908 4.34586,0.77113 7.31661,0.10537 2.94908,-0.6609 6.11169,-0.62313 10.2257,0.12214 9.59294,1.73779 18.12052,2.0644 22.75613,0.87157 2.376,-0.61139 6.48,-1.46282 9.12,-1.89208 6.47134,-1.05221 21.95358,-7.35931 24.14967,-9.83801 l 1.77033,-1.99815 -5.93236,0.60096 c -3.2628,0.33053 -8.18993,1.45877 -10.94919,2.5072 -5.37805,2.0435 -7.49902,1.78264 -5.48507,-0.67461 1.09455,-1.33547 0.95385,-1.43759 -1.15338,-0.83717 -5.17674,1.47503 -8.64,1.8016 -8.64,0.81472 0,-0.55308 0.54,-1.2235 1.2,-1.48982 0.66,-0.26631 0.0648,-0.51831 -1.32276,-0.56 -1.38752,-0.0417 -4.10654,0.58596 -6.04226,1.39475 -3.84836,1.60795 -6.13136,1.10167 -4.40613,-0.9771 1.96741,-2.37059 9.78057,-4.24626 14.23705,-3.41783 2.28024,0.42388 5.83621,0.3909 7.90216,-0.0733 2.06594,-0.46419 5.16828,-0.83161 6.89409,-0.81648 1.72582,0.0151 5.2179,0.0368 7.76018,0.0483 5.74179,0.0258 9.29767,1.31322 9.29767,3.36618 0,1.22843 0.56767,1.42535 2.62235,0.90966 3.62247,-0.90918 15.61765,-9.01466 15.61765,-10.55329 0,-0.69072 1.15074,-2.00986 2.5572,-2.93141 4.85532,-3.18132 10.8828,-9.35543 10.8828,-11.14754 0,-2.50025 -1.34878,-2.26763 -7.56315,1.30438 -2.96827,1.70616 -5.94354,2.98169 -6.61171,2.8345 -0.66818,-0.14718 -2.39618,0.35013 -3.84,1.10513 -3.80019,1.98718 -16.56912,7.93096 -19.71031,9.1749 -1.47685,0.58485 -3.71935,1.06336 -4.98335,1.06336 -4.39597,0 -3.34912,-1.76758 2.14254,-3.6176 3.57419,-1.20407 5.44434,-2.34145 5.29483,-3.22018 -0.14275,-0.83907 2.24835,-2.51378 6.25297,-4.37954 8.10336,-3.77535 15.86683,-10.36088 15.09201,-12.80212 -0.66281,-2.08831 2.07272,-5.14698 8.53098,-9.53876 3.92034,-2.66593 4.42513,-3.3311 3.09346,-4.07634 -1.68174,-0.94116 -10.23106,0.36618 -15.45827,2.36383 -1.584,0.60534 -5.38643,3.17289 -8.44984,5.70567 -3.06341,2.53277 -5.97941,4.60504 -6.48,4.60504 -2.04511,0 -0.68945,-2.92846 2.68984,-5.81048 4.1923,-3.57539 2.70062,-2.89189 -4.08,1.86951 -2.64,1.85383 -6.77641,4.68693 -9.19202,6.29578 -5.96589,3.97343 -9.70397,7.25298 -11.56912,10.15001 -1.76557,2.74235 -8.07922,6.49482 -9.14109,5.43295 -0.38391,-0.38391 1.21903,-2.70191 3.5621,-5.15111 3.58939,-3.75196 3.78088,-4.1249 1.21624,-2.3687 -8.27968,5.66974 -16.87729,8.69482 -28.63611,10.07568 -12.79339,1.50235 -28.71835,1.32758 -30.72427,-0.33719 -2.03146,-1.68596 -17.41379,-3.84023 -23.84833,-3.33992 -3.19095,0.24811 -6.0415,0.0802 -6.33456,-0.3732 -0.29306,-0.45338 -3.98884,1.48194 -8.21284,4.3007 -4.224,2.81876 -10.37715,6.31137 -13.67366,7.76136 -3.93226,1.72961 -5.9133,3.13488 -5.76,4.08589 0.29714,1.84337 -5.21882,2.76057 -17.18524,2.85756 l -8.7789,0.0712 0.76498,3.39183 c 1.24011,5.4985 0.005,14.82369 -2.96238,22.36138 -2.50754,6.37018 -2.65882,7.38477 -1.60469,10.76232 0.76083,2.43779 1.80891,3.82526 3.02668,4.00679 2.68049,0.39956 2.85729,2.06272 0.33681,3.16848 -1.48537,0.65165 -2.2579,1.92722 -2.46442,4.0692 -0.16546,1.716 0.12943,3.12 0.6553,3.12 0.52588,0 1.23235,0.87027 1.56995,1.93394 0.33759,1.06366 0.96575,1.71642 1.39591,1.45057 0.43016,-0.26586 1.37106,0.23127 2.09089,1.10472 1.1623,1.41037 1.36249,1.17585 1.78877,-2.09553 0.71638,-5.49763 2.49609,-5.16566 4.227,0.78847 0.83249,2.86366 2.24686,5.80316 3.14305,6.53224 1.43882,1.17052 1.55178,1.11863 0.9656,-0.4436 -3.0943,-8.24658 -1.12031,-8.32097 4.00236,-0.15081 2.15185,3.432 4.31966,6.24 4.81735,6.24 1.14708,0 0.40962,-3.41406 -1.5989,-7.4021 -0.85374,-1.69516 -1.21379,-3.42057 -0.8001,-3.83426 0.71036,-0.71037 2.73098,1.27058 11.53182,11.30543 5.18443,5.91137 5.65466,3.19761 0.67581,-3.90022 -2.73452,-3.89833 -3.60545,-5.85241 -2.82373,-6.33554 0.70119,-0.43335 4.29545,2.63976 9.46666,8.09405 8.24936,8.70094 11.30212,11.06395 8.22359,6.36552 -1.65941,-2.53259 -1.24016,-4.73419 0.71582,-3.75898 0.62352,0.31088 -0.48635,-0.87008 -2.46637,-2.62434 -1.98003,-1.75426 -3.60003,-3.51356 -3.6,-3.90956 1.7e-4,-2.89624 10.34833,2.44699 17.91567,9.25067 2.70956,2.43613 5.1928,4.42933 5.51831,4.42933 1.83933,0 -3.03569,-7.86652 -7.2812,-11.74922 -2.73587,-2.50206 -4.71401,-4.80951 -4.39587,-5.12765 1.19335,-1.19335 4.95858,0.92561 12.38308,6.96883 4.25407,3.46263 8.23994,6.00488 8.97345,5.72341 0.72583,-0.27853 2.96825,0.82146 4.98315,2.44443 2.0149,1.62297 5.39145,3.74896 7.50345,4.72444 3.92712,1.81383 8.33968,2.48251 6.672,1.01108 z m -93.86338,-43.0267 c -0.96768,-0.96768 0.28474,-2.24862 2.19855,-2.24862 0.97562,0 4.69935,-1.31259 8.27497,-2.91685 3.57561,-1.60427 7.02228,-2.71686 7.65927,-2.47242 1.27388,0.48883 4.34433,-1.34019 8.19951,-4.88432 1.37551,-1.26452 2.88751,-2.17291 3.36,-2.01864 1.03312,0.33732 4.70728,-2.18425 10.83412,-7.43544 6.85557,-5.87578 11.22328,-8.29279 14.24462,-7.88271 2.598,0.35262 2.56543,0.40648 -1.38999,2.2986 -4.26692,2.04113 -12.04964,7.79692 -19.39786,14.3459 -5.27216,4.69872 -17.39156,10.96588 -21.20576,10.96588 -1.50758,0 -3.74118,0.36874 -4.96355,0.81943 -3.90884,1.44118 -7.19993,2.04313 -7.81388,1.42919 z m 120.7829,42.85766 c -0.33099,-0.53555 -2.40848,-1.89224 -4.61666,-3.01487 -5.22208,-2.6549 -19.85739,-17.12819 -17.33122,-17.13936 0.988,-0.004 5.3255,1.76861 9.63889,3.93994 5.15101,2.59298 9.4545,4.06291 12.53946,4.28306 2.5833,0.18435 5.88629,0.78738 7.33996,1.34006 3.17327,1.20648 15.90442,1.3136 17.742,0.14929 0.92708,-0.58742 -0.044,-1.29974 -3.36,-2.46462 -2.56517,-0.90112 -6.60795,-2.5304 -8.98395,-3.62062 -5.49069,-2.51937 -10.88525,-3.72907 -16.12332,-3.61556 -3.74295,0.0811 -7.92679,-0.8604 -13.15668,-2.96072 -1.056,-0.42408 -3.41477,-1.06648 -5.24172,-1.42755 -2.68658,-0.53097 -8.12255,-2.66764 -12.73963,-5.00747 -1.64154,-0.8319 2.00202,4.39989 5.34815,7.6794 2.98741,2.92793 3.58538,4.13231 3.33646,6.72 -0.29149,3.03038 -0.4523,3.14428 -4.14326,2.93481 l -3.84,-0.21793 2.34078,1.79842 c 1.28744,0.98914 2.91721,1.57724 3.62173,1.30689 0.70452,-0.27035 3.41266,1.50243 6.01809,3.9395 2.75207,2.57424 5.65951,4.43721 6.93827,4.44575 1.21062,0.008 2.84913,0.43347 3.64113,0.9453 1.96045,1.26694 11.81543,1.25468 11.03152,-0.0137 z m -173.61515,-16.83537 c 1.347,-1.347 2.94736,-2.27363 3.55636,-2.05917 0.609,0.21446 2.72852,-1.05945 4.71004,-2.83091 1.98152,-1.77146 4.19662,-3.22083 4.92245,-3.22083 0.72583,0 1.8619,-0.65333 2.52461,-1.45184 0.87214,-1.05087 1.54383,-1.17056 2.43208,-0.43338 0.87077,0.72267 1.42285,0.70182 1.90097,-0.0718 0.3706,-0.59964 1.48863,-0.87717 2.48451,-0.61674 0.99589,0.26043 2.07134,0.0518 2.38989,-0.46364 0.31855,-0.51543 1.50698,-1.31149 2.64096,-1.76903 1.98226,-0.79979 -0.0844,-0.99633 -14.83742,-1.41099 -1.90255,-0.0535 -4.58735,-0.83643 -5.96623,-1.73991 -1.37887,-0.90347 -3.14574,-1.64267 -3.92638,-1.64267 -0.78063,0 -2.03959,-0.88554 -2.79769,-1.96787 -1.35426,-1.93348 -1.38985,-1.92203 -2.03674,0.65537 -0.80425,3.2044 -5.2312,10.9125 -6.26731,10.9125 -0.4131,0 -1.99205,-2.484 -3.50878,-5.52 -3.45908,-6.92397 -3.21939,-6.59567 -4.00989,-5.4922 -1.38811,1.9377 -6.90602,5.2522 -8.74375,5.2522 -1.05254,0 -2.90603,0.4059 -4.11888,0.902 -1.21284,0.4961 -4.28305,1.17445 -6.82268,1.50745 -4.84129,0.63478 -5.52627,2.03735 -1.88906,3.86803 1.08999,0.54861 2.65695,1.5578 3.48213,2.24264 0.82519,0.68485 1.95421,0.96466 2.50894,0.62182 0.55473,-0.34284 2.38539,0.357 4.06813,1.55522 1.68273,1.19821 4.37978,2.31945 5.99344,2.49163 8.15145,0.8698 9.87662,1.1479 12.53393,2.02047 4.59489,1.50882 6.16927,1.26874 8.77637,-1.33835 z m -18.19468,-1.50044 c -0.95607,-0.55613 -2.31948,-0.78812 -3.0298,-0.51555 -1.39883,0.53678 -4.35189,-2.18463 -4.35189,-4.01051 0,-0.61843 0.432,-1.12441 0.96,-1.12441 0.528,0 0.96,0.45749 0.96,1.01665 0,0.55916 0.39884,0.77017 0.8863,0.4689 1.05444,-0.65168 7.7537,3.12341 7.7537,4.36927 0,1.12 -1.01359,1.05483 -3.17831,-0.20435 z m 5.29031,-0.0825 c -2.10205,-2.10206 -1.19307,-2.75855 1.728,-1.248 1.584,0.81912 2.88,1.69421 2.88,1.94465 0,0.93951 -3.50115,0.41019 -4.608,-0.69665 z m -15.872,-5.248 c -0.352,-0.352 -0.62626,-1.54 -0.60947,-2.64 0.03,-1.96498 0.0552,-1.96737 1.44,-0.13652 0.77521,1.02492 1.40947,2.21292 1.40947,2.64 0,0.93926 -1.35469,1.02182 -2.24,0.13652 z m 77.0906,4 c 0,-0.528 -0.41877,-0.312 -0.9306,0.48 -0.51183,0.792 -0.9306,1.872 -0.9306,2.4 0,0.528 0.41877,0.312 0.9306,-0.48 0.51183,-0.792 0.9306,-1.872 0.9306,-2.4 z m -242.850592,-1.47609 c 2.376,-0.95465 5.939999,-2.00464 7.919999,-2.33331 1.980003,-0.32866 3.600003,-0.9939 3.600003,-1.4783 0,-0.4844 2.592,-2.64092 5.76,-4.79227 3.168,-2.15135 5.76,-4.26081 5.76,-4.68769 0,-0.42688 -3.132,-0.16718 -6.96,0.57711 -5.47668,1.06484 -8.029266,1.122 -11.977152,0.26818 -4.821116,-1.04267 -5.289989,-0.95263 -12,2.30456 -4.750962,2.30622 -9.380313,3.70699 -14.483731,4.38254 -7.482077,0.99042 -11.219117,2.25515 -11.219117,3.79689 0,0.76471 11.043166,3.58566 16.319998,4.16892 4.84064,0.53504 13.072671,-0.51618 17.28,-2.20663 z m 407.039992,1.11704 c 7.25575,-1.90148 7.26499,-1.90736 5.6091,-3.56325 -0.82037,-0.82037 -5.27167,-2.02574 -10.23484,-2.77149 -6.18892,-0.92993 -10.70161,-2.28849 -15.27867,-4.59969 -5.66125,-2.85867 -6.92718,-3.16289 -9.85559,-2.36843 -3.11999,0.84643 -11.96921,0.46336 -18.72,-0.81037 l -2.88,-0.54339 2.47903,2.22785 c 4.85571,4.36372 11.96537,8.95685 14.80097,9.56203 1.584,0.33807 5.256,1.52533 8.16,2.63837 4.24031,1.62522 6.88678,1.95841 13.44,1.6921 4.488,-0.18239 10.104,-0.84107 12.48,-1.46373 z m -199.20679,-1.06993 c 0.33632,-0.54418 -0.049,-0.70512 -0.90335,-0.37729 -1.66312,0.6382 -1.96741,1.3263 -0.58651,1.3263 0.49684,0 1.16727,-0.42705 1.48986,-0.94901 z M 76.26173,-395.1525 c 2.30823,-1.70655 3.05856,-1.85709 4.26512,-0.85574 1.2036,0.9989 2.08959,0.84611 4.97887,-0.85861 1.9331,-1.14056 4.12314,-1.84027 4.86676,-1.55492 0.82934,0.31825 1.9819,-0.60304 2.98128,-2.38303 1.08747,-1.93692 2.18787,-2.76132 3.30923,-2.47922 1.01698,0.25583 1.68,-0.1221 1.68,-0.95763 0,-0.75914 0.648,-1.62891 1.44,-1.93283 1.74288,-0.66881 1.81229,-2.76766 0.28089,-8.49338 -1.25597,-4.69597 -2.20594,-5.42257 -3.15989,-2.41692 -1.66683,5.2517 -16.67731,9.22802 -16.83798,4.46043 -0.0203,-0.60351 -1.38823,-1.96129 -3.03977,-3.01729 -4.64172,-2.96794 -6.48777,-6.16945 -6.91944,-12 -0.57453,-7.76014 -1.09002,-8.63038 -4.52817,-7.64433 -1.57611,0.45202 -3.4889,0.58269 -4.25064,0.29038 -2.08654,-0.80068 -1.66254,-3.20605 0.56513,-3.20605 1.07257,0 2.19879,-0.648 2.50271,-1.44 0.30392,-0.792 1.35681,-1.44 2.33974,-1.44 1.13675,0 1.59962,-0.48873 1.27185,-1.3429 -0.82595,-2.15238 0.99024,-2.54854 5.00313,-1.0913 2.05284,0.74547 6.21128,2.08764 9.24096,2.9826 3.02969,0.89496 5.97728,2.19202 6.55019,2.88234 0.57292,0.69032 1.6213,1.0327 2.32975,0.76085 2.29728,-0.88155 8.80011,6.03077 10.46656,11.12565 0.84974,2.59794 1.54498,5.39835 1.54498,6.22314 0,0.82479 0.324,1.42986 0.72,1.3446 1.29153,-0.27808 6,2.00439 6,2.90855 0,0.48458 0.67625,1.14055 1.50278,1.45772 1.15362,0.44268 1.36163,0.13197 0.89531,-1.33729 -0.34784,-1.09594 -0.16952,-1.91396 0.41722,-1.91396 0.56358,0 1.02469,-0.63444 1.02469,-1.40987 0,-0.92058 0.5544,-1.19713 1.59749,-0.79686 1.06119,0.40722 1.36848,0.24248 0.91534,-0.49072 -0.65658,-1.06235 1.30785,-8.0789 3.3084,-11.81696 0.53148,-0.99307 1.57687,-1.80559 2.32309,-1.80559 0.74622,0 2.47266,-1.03419 3.83654,-2.29819 2.3486,-2.17661 8.24382,-5.342 15.97505,-8.57766 5.20929,-2.18019 11.10734,-1.12265 12.88236,2.30984 0.76492,1.4792 2.26666,3.30296 3.3372,4.05279 1.75808,1.23141 1.79897,1.48573 0.42253,2.62808 -1.27241,1.05601 -1.97365,0.99906 -4.24907,-0.34507 -1.49884,-0.88538 -3.3854,-1.60979 -4.19236,-1.60979 -1.82932,0 -2.92032,3.22002 -2.14187,6.32161 0.76994,3.06766 -2.81464,11.40142 -5.97247,13.88537 -1.32606,1.04308 -4.0413,2.1572 -6.03388,2.47583 -2.55215,0.4081 -3.47214,0.97207 -3.11289,1.90825 0.28048,0.73092 1.27485,1.32894 2.2097,1.32894 0.93486,0 2.21623,0.62232 2.84748,1.38293 0.63126,0.76062 1.76415,1.1464 2.51755,0.8573 0.7534,-0.28911 1.36981,-0.0978 1.36981,0.42514 0,2.18926 -5.3655,1.9942 -10.29683,-0.37433 -5.17786,-2.48693 -7.91277,-5.46184 -9.60792,-10.45104 l -0.97852,-2.88 -0.66481,2.88 c -0.36564,1.584 -1.0669,3.87233 -1.55836,5.08517 -1.31036,3.23377 -1.09022,5.95483 0.48175,5.95483 0.75642,0 1.61575,0.75756 1.90962,1.68347 0.29387,0.92591 3.23899,2.96829 6.54469,4.53861 6.83871,3.24862 8.6776,3.96234 6.25038,2.42593 -2.47665,-1.56769 -2.15152,-3.98803 0.48,-3.57317 3.25497,0.51315 9.36,3.34761 9.36,4.34569 0,0.48317 2.03265,1.1571 4.51701,1.49762 3.55751,0.48761 4.69607,0.29915 5.35999,-0.88722 0.46365,-0.82849 2.103,-2.94141 3.643,-4.69537 1.54,-1.75397 2.8,-4.14444 2.8,-5.31217 0,-1.28148 0.72595,-2.31298 1.83125,-2.60202 1.9344,-0.50586 2.93395,-2.93835 2.95564,-7.1928 0.007,-1.41429 0.69364,-3.25195 1.52539,-4.08371 0.98214,-0.98214 1.44345,-2.94124 1.31594,-5.58857 -0.10799,-2.24196 0.14615,-4.896 0.56475,-5.89786 0.44347,-1.06138 0.25434,-3.06453 -0.45321,-4.8 -0.66787,-1.63814 -1.44451,-4.05843 -1.72586,-5.37843 -0.28136,-1.32 -0.89303,-2.88525 -1.35929,-3.47832 -0.46625,-0.59308 -0.61155,-1.69382 -0.32288,-2.44608 0.28867,-0.75227 -0.56787,-2.39433 -1.90343,-3.64902 -1.33557,-1.2547 -2.4283,-2.84287 -2.4283,-3.52927 0,-1.5103 -4.8921,-4.17731 -7.66245,-4.17731 -1.0988,0 -2.21533,-0.56685 -2.48118,-1.25966 -0.60502,-1.57664 -9.33161,-0.0319 -12.94513,2.29143 -3.75591,2.41492 -5.85949,2.92029 -7.27292,1.74725 -0.98709,-0.81922 -1.31832,-0.81821 -1.31832,0.004 0,0.60397 -1.1124,1.60497 -2.47199,2.22444 -1.3596,0.61947 -3.09869,2.33821 -3.86466,3.81942 -0.78727,1.52241 -2.18844,2.6931 -3.22331,2.6931 -1.00686,0 -2.08319,0.79567 -2.39184,1.76816 -0.30866,0.97249 -1.60507,2.74883 -2.88091,3.94742 l -2.31972,2.17926 -2.52577,-2.52577 c -1.38917,-1.38917 -2.9082,-2.28941 -3.37561,-2.00053 -0.46742,0.28888 -1.3252,-0.36296 -1.90619,-1.44854 -0.58098,-1.08558 -1.49388,-1.70336 -2.02866,-1.37284 -0.53478,0.33051 -1.7011,-0.0373 -2.59183,-0.81735 -6.42698,-5.62841 -22.34671,-10.10897 -23.66954,-6.66173 -0.35382,0.92203 -1.29947,1.18191 -2.86811,0.78821 -1.53033,-0.38409 -2.60701,-0.11103 -3.11105,0.78901 -0.42395,0.75701 -2.51398,2.63897 -4.64453,4.18213 -2.88515,2.08974 -4.64128,4.54355 -6.88145,9.61535 -1.65425,3.74527 -2.58222,6.95142 -2.06216,7.12477 0.60398,0.20133 0.50408,2.71115 -0.27655,6.94782 -0.94995,5.15555 -0.96423,6.71859 -0.0641,7.01863 0.63689,0.2123 1.15799,1.91239 1.15799,3.77797 0,2.95288 0.25614,3.32498 1.97873,2.87451 1.31727,-0.34447 2.15822,0.0192 2.51568,1.08804 0.29532,0.88301 1.39172,3.45033 2.43643,5.70515 1.04472,2.25482 1.64891,4.75265 1.34266,5.55073 -0.36442,0.94967 0.24878,1.75735 1.77463,2.33748 1.2823,0.48753 3.05174,1.9857 3.93208,3.32927 1.94898,2.97452 2.605,3.01401 6.17853,0.37199 z m -6.80193,-2.99967 c -2.02424,-1.55417 -4.07486,-5.49141 -3.27609,-6.29018 0.34994,-0.34995 1.22922,0.22705 1.95395,1.28222 0.72473,1.05517 2.30032,2.89049 3.50132,4.07849 1.56375,1.54682 1.78058,2.15133 0.76382,2.12947 -0.78089,-0.0168 -2.10524,-0.5568 -2.943,-1.2 z m 4.5059,-0.28799 c -0.8869,-2.31124 -0.74023,-2.43613 1.33729,-1.13869 2.22871,1.39185 2.5062,2.65721 0.58271,2.65721 -0.73551,0 -1.59951,-0.68333 -1.92,-1.51852 z m 2.53729,-8.69563 c -0.66,-0.27822 -1.2,-1.05687 -1.2,-1.73033 0,-0.8867 1.38219,-1.11547 5.01068,-0.82932 4.81117,0.37942 6.32742,0.82968 5.46932,1.62413 -0.75819,0.70195 -8.08249,1.44032 -9.28,0.93552 z m -4.50932,-1.22386 c -0.3091,-0.50013 -0.1528,-1.16222 0.34733,-1.47132 0.50013,-0.30909 1.16222,-0.15279 1.47132,0.34733 0.3091,0.50013 0.1528,1.16223 -0.34733,1.47132 -0.50013,0.3091 -1.16222,0.1528 -1.47132,-0.34733 z m 72.42932,-0.0482 c 0,-0.90628 3.03536,-2.91377 4.40568,-2.91377 0.38054,0 -0.09,0.864 -1.04568,1.92 -1.86157,2.05702 -3.36,2.5002 -3.36,0.99377 z m -237.119992,12.8235 c 0,-0.20751 -0.648,-0.37729 -1.44,-0.37729 -0.792,0 -1.44,0.41844 -1.44,0.92987 0,0.51143 0.648,0.68121 1.44,0.37729 0.792,-0.30392 1.44,-0.72236 1.44,-0.92987 z m 204.353742,-6.35402 c 0.82336,-2.65128 1.04967,-5.09745 0.57069,-6.16845 -0.63087,-1.41059 -0.90568,-1.00218 -1.3391,1.99014 -0.85151,5.87876 -2.94534,5.56419 -2.94534,-0.44251 0,-4.33342 -0.19136,-4.83873 -1.44,-3.80245 -1.80057,1.49434 -1.79536,2.29488 0.0555,8.52727 1.77874,5.98965 3.21499,5.96036 5.09829,-0.104 z m 217.08625,2.12883 c 0.264,-0.37202 3.288,-0.90984 6.72,-1.19516 4.19596,-0.34884 8.36265,-1.52427 12.72,-3.58834 8.37893,-3.9691 8.53569,-5.66695 0.48,-5.1989 -18.1794,1.05625 -21.72208,1.08422 -22.62765,0.17865 -0.6628,-0.6628 -2.57103,-0.59472 -5.93235,0.21165 -3.65518,0.87686 -5.23713,0.90687 -6.02963,0.11437 -1.25827,-1.25827 -0.17448,-2.58573 2.66963,-3.26983 4.88881,-1.17591 -4.45212,-0.55662 -10.41169,0.69028 -3.61403,0.75616 -7.10337,1.17053 -7.75409,0.92082 -0.65072,-0.2497 -2.3692,-0.003 -3.81885,0.5481 l -2.63574,1.0021 2.71019,2.26572 c 1.4906,1.24615 3.6252,2.55186 4.74357,2.90159 1.11836,0.34972 2.80532,1.48884 3.74879,2.53136 1.29227,1.42794 3.04027,1.91909 7.08661,1.99118 2.95416,0.0526 6.45121,0.43484 7.77121,0.84935 2.57821,0.80963 9.76975,0.16066 10.56,-0.95294 z m -416.820465,0.0359 c 6.308848,-0.72537 8.585472,-1.42733 10.873655,-3.35271 1.591772,-1.33939 3.709785,-2.43525 4.706697,-2.43525 0.996912,0 2.274966,-0.864 2.84012,-1.92 0.565154,-1.056 1.768353,-1.96306 2.673773,-2.01569 3.20392,-0.18624 -3.120959,-1.63221 -7.561199,-1.72862 -2.424084,-0.0526 -6.528084,-0.73902 -9.12,-1.5253 -2.591915,-0.78629 -5.792573,-1.40018 -7.112573,-1.36421 -2.389801,0.0651 -2.388577,0.0696 0.288,1.04561 6.203187,2.26206 -1.227127,4.33226 -8.245858,2.29741 -2.04591,-0.59314 -2.61229,-0.46636 -2.4,0.53722 0.18999,0.8982 -0.48107,1.2096 -2.12214,0.98477 -1.32,-0.18085 -7.99075,-0.54083 -14.8239,-0.79995 -10.7191,-0.40648 -12.26701,-0.28211 -11.28064,0.9064 2.39325,2.88369 14.10947,7.30534 22.26295,8.40193 4.48713,0.60349 8.339127,1.27797 8.560001,1.49884 0.555422,0.55542 1.380974,0.51356 10.461114,-0.53045 z m 386.100465,-0.0932 c 2.19889,-0.0838 2.12152,-0.21271 -0.92326,-1.5388 -1.82779,-0.79606 -4.56093,-2.48882 -6.07365,-3.76169 -1.51272,-1.27287 -3.36526,-2.31431 -4.11675,-2.31431 -0.75149,0 -1.36634,-0.37679 -1.36634,-0.83731 0,-0.46051 -1.7057,-1.11005 -3.79044,-1.44342 -2.08475,-0.33336 -5.00075,-1.67092 -6.48,-2.97236 l -2.68956,-2.36624 2.448,-0.0303 c 1.3464,-0.0167 2.87731,0.39898 3.40203,0.92369 1.54807,1.54808 12.26633,2.31659 14.63429,1.04929 1.14746,-0.6141 4.9999,-1.34185 8.56098,-1.61723 3.56109,-0.27538 8.80915,-1.18401 11.66237,-2.01918 l 5.18768,-1.5185 -2.66393,-1.39577 c -1.78963,-0.93769 -3.98888,-1.19708 -6.701,-0.79038 -4.71366,0.70686 -7.57142,-0.12105 -6.85572,-1.98613 0.38952,-1.0151 -0.6854,-1.31612 -4.69966,-1.31612 -2.86259,0 -6.27083,-0.48577 -7.57389,-1.07948 -1.98595,-0.90486 -2.85658,-0.73242 -5.38231,1.06606 -3.22718,2.29795 -9.74099,4.21501 -18.25884,5.37369 -3.60107,0.48985 -4.66948,0.91272 -3.36,1.32986 3.3624,1.07111 10.94105,4.85311 11.48335,5.73057 1.72722,2.79471 -2.38243,5.20245 -8.92661,5.22987 -2.7569,0.0116 -2.9801,0.1766 -1.60181,1.18443 2.6451,1.93414 11.04622,3.62785 12.21206,2.462 0.70899,-0.70898 1.63121,-0.60584 3.08188,0.34467 2.37238,1.55444 11.61592,3.31709 14.47113,2.7595 1.056,-0.20622 3,-0.41609 4.32,-0.46637 z M -55.219,-402.32886 c 2.75518,-1.1024 4.28121,-1.31515 4.51001,-0.62875 0.34097,1.02291 5.97383,-0.10781 11.73943,-2.35653 2.08784,-0.8143 1.76757,-0.981 -2.71168,-1.4114 -5.35141,-0.5142 -8.24533,-2.35963 -7.35179,-4.68816 0.29399,-0.76612 2.70183,-2.42191 5.35077,-3.67955 2.64894,-1.25763 5.01138,-2.60234 5.24988,-2.98824 0.2385,-0.3859 -1.98281,-1.00356 -4.93625,-1.37256 -7.35004,-0.91833 -14.0247,-3.00629 -16.93936,-5.29896 -2.23499,-1.75805 -2.65989,-1.79813 -5.17203,-0.48793 -1.50534,0.78511 -4.775424,1.43013 -7.266853,1.43338 -3.818264,0.005 -4.434156,0.25535 -3.920579,1.59371 0.536515,1.39813 -0.06908,1.52938 -5.070129,1.09883 -3.541798,-0.30493 -6.763397,-0.0266 -8.559421,0.73958 l -2.88,1.22854 3.401,1.44236 c 7.089136,3.00651 32.458262,5.01299 36.631322,2.89722 3.2913,-1.6687 4.60768,-1.66405 4.60768,0.0163 0,1.64978 -5.66358,4.42939 -9.02509,4.42939 -1.3722,0 -2.49491,0.40289 -2.49491,0.89531 0,0.49242 -0.972,1.2015 -2.16,1.57574 -1.188,0.37424 -3.66243,1.91535 -5.49873,3.42469 -1.836304,1.50934 -4.212304,2.77462 -5.280003,2.81173 -1.933576,0.0672 -1.93366,0.071 -0.02127,0.95354 2.736739,1.26299 12.894643,0.33371 17.798003,-1.62823 z m 149.24938,-17.63972 c 3.53584,-3.32175 3.11027,-5.56761 -0.48221,-2.54474 -3.6621,3.08146 -6.1092,3.84091 -10.0151,3.10816 -3.99273,-0.74904 -7.065,-4.0388 -8.71686,-9.33393 l -1.30478,-4.18255 -0.0642,3.5375 c -0.092,5.06839 1.24566,7.87629 4.89728,10.27987 4.3291,2.84951 12.194,2.41615 15.68589,-0.86431 z m 46.66555,-1.80012 c 3.2393,-3.2393 3.72706,-4.29978 3.72706,-8.10334 0,-2.40696 -0.432,-4.64328 -0.96,-4.9696 -0.58474,-0.36139 -0.96,1.06688 -0.96,3.65388 0,4.94583 -2.22135,8.32422 -6.93389,10.54553 -3.10961,1.46576 -7.95909,1.25289 -8.97695,-0.39404 -0.28736,-0.46495 -0.95447,-0.84537 -1.48247,-0.84537 -1.51813,0 0.10058,1.97014 2.37155,2.88642 1.13397,0.45753 3.73259,0.85926 5.7747,0.89273 3.07422,0.0504 4.3541,-0.58031 7.44,-3.66621 z m 190.99282,1.25325 c 2.86783,-0.83259 5.64624,-2.05703 6.17424,-2.72098 0.528,-0.66395 2.256,-1.51205 3.84,-1.88467 5.5169,-1.29779 14.88,-5.69765 14.88,-6.99233 0,-0.71707 1.73608,-1.9984 3.85797,-2.84741 4.28207,-1.71335 8.22952,-5.9373 6.84373,-7.3231 -0.52449,-0.52449 -4.06327,0.13432 -8.85881,1.64924 -4.392,1.38743 -10.87875,2.71394 -14.41501,2.94779 -4.77087,0.31551 -8.24367,1.29459 -13.46164,3.79523 -3.86764,1.85352 -7.99594,3.37004 -9.17399,3.37004 -1.17805,0 -3.13424,0.4045 -4.34708,0.89888 -1.21285,0.49439 -3.88533,1.17325 -5.93885,1.50858 l -3.73368,0.6097 2.57423,1.33552 c 1.41582,0.73454 4.17598,1.63121 6.13368,1.99259 1.9577,0.36138 4.51082,1.67353 5.67361,2.91589 2.50193,2.67315 3.14457,2.72126 9.9516,0.74503 z m -427.807625,-1.22565 c 2.145376,-1.92627 10.574588,-4.90304 14.162254,-5.00139 l 2.219619,-0.0609 -2.126415,-0.85579 c -1.169528,-0.47069 -5.585989,-1.51206 -9.814359,-2.31417 -4.410554,-0.83667 -10.553414,-2.90141 -14.409624,-4.84336 -5.16532,-2.60122 -7.899,-3.38498 -11.80641,-3.38498 -2.79661,0 -8.0994,-0.90158 -11.78397,-2.0035 -8.63679,-2.58295 -12.93922,-3.2616 -12.93922,-2.04098 0,1.50791 6.48852,6.8298 9.13761,7.49468 1.31031,0.32887 2.38239,1.21898 2.38239,1.97803 0,1.58625 8.46734,5.7884 13.44,6.66998 1.848,0.32762 3.8655,1.23094 4.48334,2.00738 1.3318,1.67367 8.27427,3.97948 12.25478,4.07019 1.549975,0.0353 3.709975,-0.73654 4.800005,-1.71524 z m 183.891725,-5.40832 c 1.59513,-1.92201 0.53259,-4.33222 -1.90986,-4.33222 -2.17801,0 -3.39443,2.07472 -2.53284,4.32 0.70721,1.84294 2.91829,1.84902 4.4427,0.0122 z m 48.01014,-1.84845 c 0,-1.91016 -2.41172,-3.56321 -4.19832,-2.87762 -1.83282,0.70331 -2.10653,4.83848 -0.36168,5.46413 1.67479,0.60052 4.56,-1.03602 4.56,-2.58651 z m -19.34124,-24.53053 c 5.26014,-5.55659 15.26446,-11.4462 17.30293,-10.18636 0.47696,0.29477 2.88661,-0.59272 5.35477,-1.9722 l 4.48759,-2.50816 -2.94203,-1.78915 c -1.61811,-0.98403 -2.94202,-2.15816 -2.94202,-2.60917 0,-1.05393 -4.35887,-3.0482 -6.66246,-3.0482 -0.97467,0 -1.99737,-0.587 -2.27268,-1.30444 -0.65889,-1.71705 -22.44829,-3.21613 -24.01239,-1.65203 -0.57006,0.57006 -3.30057,1.03647 -6.06781,1.03647 -2.76724,0 -5.26807,0.38303 -5.5574,0.85117 -0.28933,0.46814 -2.08633,1.14388 -3.99334,1.50164 -4.84014,0.90801 -9.99392,3.5149 -9.99392,5.05512 0,0.71078 -0.73687,1.57509 -1.63749,1.92069 -0.90062,0.3456 -2.30462,1.18784 -3.12,1.87165 -0.81538,0.6838 -2.24709,1.79148 -3.18159,2.4615 -1.45013,1.03973 -1.02813,1.17313 2.88,0.91042 2.5185,-0.1693 6.52308,0.17144 8.89908,0.7572 2.376,0.58575 4.83928,1.17856 5.47395,1.31734 0.63467,0.13878 1.93067,0.95239 2.88,1.80801 0.94933,0.85562 3.02205,1.85643 4.60605,2.22403 3.70711,0.8603 10.04881,4.47479 12.38996,7.06173 1.00519,1.11072 2.02111,2.0195 2.25759,2.0195 0.23648,0 2.86953,-2.57704 5.85121,-5.72676 z"
       id="path1" />
  </g>
</svg>
