<?xml version="1.0" encoding="UTF-8" standalone="no"?>
<!-- Created with Inkscape (http://www.inkscape.org/) -->

<svg
   version="1.1"
   id="svg1"
   width="846.3996"
   height="784.5661"
   viewBox="0 0 846.39962 784.56612"
   sodipodi:docname="Swan-II.svg"
   inkscape:version="1.4.2 (ebf0e940d0, 2025-05-08)"
   xmlns:inkscape="http://www.inkscape.org/namespaces/inkscape"
   xmlns:sodipodi="http://sodipodi.sourceforge.net/DTD/sodipodi-0.dtd"
   xmlns="http://www.w3.org/2000/svg"
   xmlns:svg="http://www.w3.org/2000/svg">
  <defs
     id="defs1" />
  <sodipodi:namedview
     id="namedview1"
     pagecolor="#ffffff"
     bordercolor="#000000"
     borderopacity="0.25"
     inkscape:showpageshadow="2"
     inkscape:pageopacity="0.0"
     inkscape:pagecheckerboard="0"
     inkscape:deskcolor="#d1d1d1"
     showgrid="false"
     inkscape:zoom="0.30727681"
     inkscape:cx="1010.4895"
     inkscape:cy="432.83449"
     inkscape:window-width="1920"
     inkscape:window-height="1011"
     inkscape:window-x="0"
     inkscape:window-y="0"
     inkscape:window-maximized="1"
     inkscape:current-layer="layer1" />
  <g
     inkscape:groupmode="layer"
     id="layer1"
     inkscape:label="Layer 1"
     transform="translate(35.92684,59.317804)">
    <path
       style="fill:#ffff00"
       d="m 219.73334,43.172725 c 2.57761,-2.577607 1.92322,-7.451047 -1.13065,-8.420307 -3.18039,-1.009418 -6.60268,1.366328 -6.60268,4.583567 0,2.543822 2.48315,5.43674 4.66666,5.43674 0.80667,0 2.18667,-0.72 3.06667,-1.6 z"
       id="path5" />
    <path
       style="display:inline;fill:#00ffff"
       d="m 227.63724,52.068827 c 4.28293,-4.28293 4.63635,-5.20751 3.94911,-10.33125 -0.51472,-3.837497 -1.89015,-6.603952 -4.32441,-8.697812 -3.92627,-3.377232 -6.20558,-3.020211 -2.754,0.431373 3.67155,3.671546 2.74812,10.568605 -1.94357,14.516395 -4.92081,4.140588 -7.18784,4.281171 -12.8977,0.799806 -5.38961,-3.286113 -5.62283,-1.098982 -0.4359,4.08795 5.69815,5.698142 12.18613,5.413877 18.40647,-0.806462 z"
       id="path4" />
    <path
       style="fill:#ff6600"
       d="m 81.342138,103.38266 c 12.046919,-3.595186 34.753282,-6.837206 55.991202,-7.994446 25.17982,-1.37203 36.84637,-2.88081 41.48928,-5.36562 l 2.94606,-1.57668 -2.81587,-2.16993 c -3.79108,-2.92143 -5.91823,-9.06751 -4.86899,-14.06823 0.47333,-2.25593 3.85979,-9.69002 7.52545,-16.5202 3.66566,-6.830177 6.33472,-12.748617 5.93125,-13.15209 -1.59878,-1.598784 -10.20403,5.332224 -14.03776,11.306566 -5.59808,8.723854 -10.52245,13.134564 -17.35595,15.545564 -11.74521,4.14395 -11.97915,2.66536 -1.15616,-7.30736 9.07316,-8.360354 16.81295,-17.976095 15.49478,-19.250361 -0.26699,-0.25809 -2.38991,-0.665345 -4.71761,-0.90501 -3.62461,-0.373199 -5.44302,0.723382 -12.66666,7.638565 -10.94279,10.475516 -18.23653,14.615906 -34.11921,19.368236 -16.56739,4.95721 -26.070397,9.61257 -33.384552,16.35452 -5.799833,5.3461 -10.930729,13.52937 -10.930729,17.433416 0,2.43043 0.565189,2.48657 6.675469,0.66306 z"
       id="path3" />
    <path
       id="path2"
       style="display:inline;fill:#b3b3b3"
       d="m 253.42188,-10.013731 c -23.00209,0.06284 -39.77081,4.062231 -50.25,11.982422 -8.13154,6.145823 -8.67077,8.455846 -2.64258,11.316406 2.56007,1.214837 6.44947,4.386258 8.64258,7.046875 3.90079,4.732343 4.08177,4.796025 8.38476,3.013672 2.57569,-1.066888 9.39473,-1.838322 16.45313,-1.863281 10.32661,-0.03651 12.57186,0.364794 15.67187,2.802734 l 3.61914,2.845703 -8.59961,0.546875 c -4.72953,0.301154 -8.97042,0.919637 -9.42383,1.373047 -0.45341,0.45341 0.19859,2.383342 1.44727,4.289063 3.58676,5.474073 2.13657,17.025101 -2.78125,22.158203 -7.9062,8.252296 -19.76235,8.442916 -28.59961,0.458984 l -5.16406,-4.664062 -7.35938,10.406254 c -4.04837,5.72384 -7.72965,12.02243 -8.17969,13.99609 -1.08604,4.76294 1.34,8.97706 6.12891,10.64648 2.14318,0.74712 3.89649,1.8382 3.89649,2.42383 0,0.58563 -2.19919,2.99602 -4.88868,5.35742 -4.57961,4.02096 -4.72836,4.38694 -2.33398,5.75391 1.40617,0.802786 3.45664,1.689736 4.55664,1.970696 3.19436,0.81587 22.82812,0.77126 28.66602,-0.0644 16.11565,-2.307036 30.10587,-3.563056 48,-4.310546 l 20,-0.83593 -5.4004,5.201166 c -2.97053,2.86074 -6.27119,5.49662 -7.33398,5.85547 -1.43412,0.48422 -0.60968,2.11949 3.19727,6.3457 9.29229,10.31566 11.80906,21.48375 8.27734,36.73437 -2.09108,9.02968 -11.82774,28.16489 -18.99609,37.33204 -15.69015,20.0651 -35.61225,41.45324 -83.82618,90 -30.95296,31.16662 -59.11195,59.96666 -62.57617,64 -3.46421,4.03332 -8.34989,9.73464 -10.85742,12.66796 -8.91368,10.42734 -27.52727,34.68099 -33.718749,43.93555 -19.053927,28.48037 -32.766694,64.93445 -37.638672,100.06445 -1.862825,13.43213 -2.286262,51.04994 -0.736328,65.33204 4.051299,37.33131 5.374045,44.75667 14.726562,82.66796 9.32788,37.81145 9.670535,38.77405 14.609375,41.07618 6.710969,3.12815 8.902,3.45747 20.273438,3.04296 8.152033,-0.29714 12.395474,-1.20511 18.000004,-3.85546 4.03332,-1.90735 12.43463,-6.67227 18.66796,-10.58789 17.3993,-10.92982 25.1717,-13.6784 38.66602,-13.66993 13.42931,0.008 19.37682,2.35685 38.42969,15.16797 15.85719,10.6623 23.19584,13.49214 34.98047,13.49214 10.91201,0 19.95968,-3.2339 33.25586,-11.88672 4.76666,-3.10203 13.16797,-7.84634 18.66796,-10.54297 9.49398,-4.65487 10.6734,-4.90429 23.33204,-4.90429 15.05145,0 13.6198,-0.54605 40.25976,15.37695 18.3286,10.9552 23.00532,12.45237 36.4082,11.6582 10.78533,-0.63907 17.14434,-3.16673 28.17774,-11.20117 3.39825,-2.47458 6.73588,-4.5 7.41601,-4.5 0.68014,0 2.40202,-1.05066 3.82813,-2.33398 5.89882,-5.30825 18.40739,-9.95252 28.70312,-10.65821 12.88535,-0.88318 20.29968,1.46844 33.91602,10.75196 24.70541,16.84394 27.83698,18.22002 41.45703,18.23242 10.64706,0.01 16.35091,-2.12477 33.85938,-12.67383 24.23395,-14.60126 27.93412,-15.98438 42.74218,-15.98438 15.30388,0 20.27703,1.91924 40.53125,15.6504 7.31373,4.95827 14.31339,9.01562 15.55469,9.01562 1.24131,0 4.07626,-2.29873 6.30078,-5.10742 4.49846,-5.67977 17.51367,-30.08956 17.51367,-32.84766 0,-1.0507 5.25197,-3.48028 13,-6.01172 12.04274,-3.93459 17.68021,-6.45835 32.11329,-14.37695 C 741.06544,625.46462 760,607.0814 760,604.28705 c 0,-1.09484 0.94224,-2.93248 2.09375,-4.08399 2.98788,-2.98788 7.24023,-18.85651 7.24023,-27.01953 v -6.92969 l -7.50781,3.43555 c -6.87656,3.1482 -8.47155,3.36473 -19,2.57617 -6.32129,-0.47346 -17.73155,-1.24275 -25.35742,-1.71094 l -13.86523,-0.85156 12.65429,-4.90429 c 23.15815,-8.97383 31.50645,-18.99367 34.42774,-41.32227 0.62094,-4.74616 0.79074,-10.32168 0.37695,-12.39063 l -0.75195,-3.76171 -10.15625,9.875 c -12.71496,12.36554 -23.36316,19.28776 -38.43164,24.98046 l -11.7793,4.44922 -5.4668,9.41211 c -6.06546,10.44374 -18.80294,25.3672 -25.47656,29.84766 -2.38334,1.60009 -4.33398,3.42542 -4.33398,4.05664 0,0.63122 2.5513,1.48321 5.66796,1.89258 6.55507,0.86099 8.80249,1.35193 17.00391,3.71875 6.62735,1.91256 39.59679,2.49119 52.66211,0.92383 l 8,-0.96094 -10.88477,4.60937 c -5.9866,2.53515 -15.36023,5.59302 -20.83007,6.79493 -9.7793,2.14883 -10.26486,2.12605 -29.11524,-1.39258 -38.27453,-7.14439 -33.46387,-7.18154 -49.30469,0.37304 -7.62562,3.63671 -17.02706,7.64251 -20.89257,8.90235 -5.70335,1.85881 -6.74129,2.63796 -5.50391,4.1289 0.83865,1.01051 2.0866,1.83789 2.77344,1.83789 4.56802,0 37.16655,19.03658 35.48242,20.72071 -0.28526,0.28526 -8.88967,-2.18885 -19.12109,-5.49805 -48.16933,-15.57964 -82.21068,-17.76527 -131.26954,-8.42383 -7.69999,1.46618 -20.3,3.32966 -28,4.14063 -37.27241,3.92552 -62.35613,3.89576 -80.83398,-0.0957 -14.34992,-3.09977 -37.17019,-9.94338 -40.5,-12.14648 -1.37429,-0.90928 3.64253,-1.32972 16.03516,-1.34375 43.61912,-0.0494 84.23725,-9.64991 112.89648,-26.68359 7.18755,-4.27195 15.74237,-10.51969 19.01172,-13.88477 l 5.94531,-6.11915 -11.94531,-0.0762 c -6.56934,-0.0423 -14.34402,-0.53544 -17.27734,-1.09571 l -5.33204,-1.01953 8,-1.58398 c 4.4,-0.8716 11.15506,-2.22396 15.01172,-3.00391 9.4668,-1.9145 22.22135,-7.18634 30.34961,-12.54492 C 523.2004,545.18966 536,530.30377 536,525.01166 c 0,-0.74275 -2.50146,-0.7568 -6.33398,-0.0352 -3.48333,0.65585 -13.24458,1.75999 -21.69141,2.45508 -8.44684,0.69508 -17.32713,1.95184 -19.73438,2.79101 -2.40725,0.83918 -4.66798,1.23437 -5.02343,0.87891 -1.65113,-1.65112 10.73387,-5.53381 30.48047,-9.55664 27.39925,-5.58185 36.43258,-9.53452 46.17968,-20.20899 6.0655,-6.64258 17.03477,-25.43008 15.6543,-26.81054 -0.23162,-0.23162 -3.96999,0.73501 -8.30859,2.14648 -17.30402,5.62947 -42.99685,9.4336 -63.70118,9.4336 -13.10133,0 -13.18767,-0.0205 -10.03515,-2.45704 3.61629,-2.795 20.52823,-8.84881 28.51367,-10.20703 20.95375,-3.56394 37.68954,-10.87646 45.68945,-19.96484 5.40976,-6.1458 12.99523,-19.47732 15.07227,-26.49023 0.96973,-3.27419 0.81249,-3.65446 -1.1543,-2.8125 -21.01133,8.9947 -65.73749,17.90162 -79.73242,15.8789 -11.99121,-1.73312 -11.23912,-2.74542 6.19531,-8.32812 23.79572,-7.61966 38.14783,-14.59314 44.44727,-21.59961 4.98361,-5.54297 14.29224,-23.37939 16.19726,-31.03516 l 0.91602,-3.68359 -6.48242,2.82617 c -24.68718,10.76008 -58.79025,19.08103 -75.1543,18.33789 l -10.66211,-0.48438 -0.77539,4.67774 c -2.53966,15.31625 -7.93705,28.49651 -14.79687,36.13086 -5.70944,6.35408 -5.49621,6.36807 9.41992,0.63086 l 9.17969,-3.53125 -0.88868,6.69726 c -2.02819,15.28936 -9.89405,33.26696 -18.55664,42.41407 -4.64236,4.90203 -3.73491,5.2312 6.75196,2.43945 l 7,-1.86328 v 4.47656 c 0,6.96032 -6.0517,24.43902 -11.76368,33.97656 -3.01756,5.03859 -7.7298,10.56234 -11.30859,13.25586 -3.37466,2.53989 -6.01285,4.74105 -5.86328,4.89063 0.14958,0.14957 3.21981,-0.27975 6.82422,-0.95313 3.60439,-0.67337 6.88108,-0.89626 7.28125,-0.49609 1.43916,1.43915 -5.91344,20.0845 -10.81446,27.42383 -9.32472,13.96387 -21.19098,22.42284 -37.40039,26.66015 -3.09113,0.80806 -15.5211,2.23158 -27.62109,3.16211 -12.09999,0.93053 -23.8,2.11608 -26,2.63477 -3.0469,0.71835 -3.52345,0.59774 -2,-0.50196 3.50851,-2.5326 18.92615,-6.43588 32,-8.10156 24.46803,-3.11737 33.95386,-6.58181 44.48242,-16.24804 5.68125,-5.21593 20.08462,-26.30015 18.82617,-27.5586 -0.28656,-0.28656 -5.1997,0.71093 -10.91601,2.2168 -13.81148,3.63841 -25.86148,5.34191 -44.39258,6.27539 l -15.33398,0.77344 4.92968,-2.72657 c 2.71106,-1.49936 10.21042,-3.93662 16.66602,-5.41601 6.45559,-1.47939 17.69514,-4.92359 24.97461,-7.65235 18.07394,-6.77512 25.04045,-13.16971 34.12695,-31.32031 3.687,-7.3649 6.41346,-13.68028 6.0586,-14.03515 -0.35487,-0.35487 -3.22011,0.39718 -6.36719,1.67187 -5.47303,2.2168 -17.77431,6.08509 -27.72071,8.7168 -11.30276,2.99058 -36.19423,6.75913 -42.15039,6.38086 l -6.51757,-0.41407 4.66796,-2.87109 c 2.56667,-1.57871 12.75232,-5.34912 22.63477,-8.37891 28.30427,-8.67763 38.50695,-14.29815 46.66211,-25.70312 5.18711,-7.25416 14.16064,-26.03467 12.99609,-27.19922 -0.30242,-0.30242 -4.09249,1.02028 -8.42187,2.93945 -7.06835,3.13334 -17.99602,6.78226 -27.20508,9.08399 -14.90614,3.72565 -35.66955,7.53459 -39.12305,7.17578 -4.03543,-0.41928 -3.84954,-0.61445 4.45703,-4.68555 4.76667,-2.33617 15.26537,-6.99779 23.33204,-10.35937 23.10219,-9.62728 30.67027,-15.70065 38.42968,-30.83985 2.47473,-4.82836 7.80814,-23.36959 6.96485,-24.21289 -0.3131,-0.31309 -3.75493,1.23839 -7.64844,3.44727 -3.89351,2.20888 -10.97943,5.63049 -15.74609,7.60351 -4.76667,1.97307 -10.46602,4.38996 -12.66602,5.37114 -11.6763,5.20748 -37.95864,11.29492 -48.76367,11.29492 -4.91265,0 -2.50099,-2.01441 5.33594,-4.45703 4.33584,-1.3514 12.45564,-4.81043 18.04296,-7.68555 32.62887,-16.79013 65.4371,-27.04601 106.05079,-33.15234 15.03331,-2.26028 30.03398,-4.69696 33.33398,-5.41602 3.3,-0.71906 11.90669,-2.51904 19.125,-3.99804 51.26556,-10.50414 86.9671,-37.50037 102.03516,-77.15625 l 2.60742,-6.86329 -7.55078,6.42188 c -7.67985,6.53282 -10.74629,8.67119 -19.79883,13.80859 -20.56082,11.66847 -54.61769,23.15075 -82.41797,27.78516 -5.13332,0.85574 -12.33333,2.10963 -16,2.78711 -11.19389,2.06826 -42.16346,5.5416 -42.89453,4.81055 -1.78084,-1.78084 22.57881,-11.51461 35.56055,-14.20899 7.69999,-1.59815 15.8,-3.43184 18,-4.07422 2.19999,-0.64237 12.56395,-2.70611 23.02929,-4.58594 30.6796,-5.51082 52.05695,-14.38501 62.3711,-25.89257 l 5.26757,-5.87696 -6.66796,0.82422 c -7.81862,0.96656 -42.44421,2.98967 -84.66602,4.94727 -36.64318,1.69894 -56.70651,4.53427 -88.66602,12.52539 -12.9731,3.24379 -45.2855,14.49678 -53.33398,18.57422 -2.2,1.11454 -9.40001,4.42318 -16,7.35351 -23.42832,10.40198 -24.56372,11.11078 -25.91992,16.19532 -0.68461,2.56665 -2.7546,11.38046 -4.60156,19.58593 -1.88063,8.35498 -5.42332,19.17568 -8.05079,24.5918 -2.58043,5.3192 -4.52198,9.83935 -4.31445,10.04687 0.20753,0.20753 6.26469,-2.03619 13.45899,-4.98632 7.19429,-2.95014 13.38319,-5.06016 13.7539,-4.68946 2.20332,2.20333 -0.63921,21.1961 -4.70703,31.44727 -4.16957,10.50757 -12.28692,21.91324 -17.51953,24.61914 -2.1156,1.09402 -4.6774,2.81998 -5.69141,3.83398 -2.61509,2.61509 -12.26932,6.70082 -24.20508,10.24415 -5.63586,1.6731 -10.03787,3.25119 -9.7832,3.50585 0.25466,0.25466 6.11428,-0.75779 13.02149,-2.24804 30.53654,-6.58835 43.28497,-9.27097 44.08398,-9.27735 1.39378,-0.0111 -1.13466,9.42467 -5.20703,19.43164 -5.0036,12.29526 -10.99592,20.78848 -19.29883,27.35157 -10.79522,8.53312 -15.33842,10.42405 -39.63281,16.50195 -7.67028,1.91893 -14.26965,3.84597 -14.66602,4.28125 -1.5038,1.65143 43.96102,-2.11001 68.90821,-5.70117 l 5.6289,-0.81055 -3.4414,8.4668 c -5.99037,14.74237 -9.358,20.26936 -17.07227,28.01562 -4.132,4.14913 -10.33972,8.87368 -13.79492,10.49805 -8.97357,4.21868 -30.29438,9.2569 -39.24805,9.27539 -7.26727,0.015 -7.7365,0.22359 -9.81836,4.34961 -3.09276,6.12956 -8.34694,11.45014 -14.54883,14.73438 -4.25991,2.25586 -7.74917,2.8361 -17.33398,2.8789 -16.03387,0.0716 -23.07698,-3.57433 -30.81445,-15.94726 -2.27562,-3.63892 -1.91626,-3.48842 3.99218,1.65234 3.5721,3.10798 8.66955,6.25426 11.32618,6.99219 7.21002,2.00272 17.17001,1.63654 22.35156,-0.82227 4.22146,-2.00322 13.81055,-12.0471 13.81055,-14.46484 0,-0.56895 -3.15001,-0.65829 -7,-0.19922 -6.91822,0.8249 -6.9553,0.81045 -3.21485,-1.26563 2.35052,-1.30462 11.44501,-2.84563 24,-4.0664 39.03031,-3.79506 49.25037,-8.72 63.54883,-30.62305 3.66625,-5.61611 6.66602,-10.67646 6.66602,-11.24609 0,-0.56962 -3.15001,-0.22321 -7,0.77148 -17.8557,4.61323 -62.86275,6.31789 -76.10743,2.88281 -6.04512,-1.56783 -6.29081,-1.79678 -4,-3.74414 5.13399,-4.36427 13.13001,-8.06269 21.6211,-10.00195 38.43461,-8.77799 47.48143,-12.63719 56.76562,-24.21289 5.81715,-7.25291 16.42592,-26.39943 15.26367,-27.54688 -0.29839,-0.29459 -4.14297,0.93536 -8.54296,2.73243 -15.161,6.19212 -39.10173,10.24131 -61.33204,10.375 -12.25726,0.0737 -20.173,-0.39574 -20.44531,-1.21289 -0.24438,-0.73333 4.25563,-2.73385 10,-4.44727 32.71494,-9.75817 42.14284,-13.04462 52.84571,-18.41992 15.84605,-7.95837 21.96483,-14.4001 27.95117,-29.42774 5.02178,-12.6063 7.28686,-20.98881 5.45507,-20.18945 -0.62734,0.27377 -6.24128,2.97518 -12.4746,6.00391 -19.10041,9.28077 -22.82366,10.73481 -38,14.83789 -21.95788,5.93653 -26.8468,6.97656 -32.81641,6.97656 -7.80457,0 -14.01286,3.38256 -23.51563,12.81445 -4.58332,4.54915 -8.33261,7.57728 -8.33203,6.72852 0.003,-3.95076 8.27821,-18.1066 13.50977,-23.10938 6.64121,-6.35077 19.8534,-12.91148 30.2207,-15.00586 3.8861,-0.78504 13.19134,-1.42773 20.67774,-1.42773 h 13.61132 l 5.61719,-8.33398 c 5.74774,-8.52755 11.81097,-20.98627 15.41406,-31.66993 2.92703,-8.679 6.28125,-29.35964 6.28125,-38.73242 v -8.06836 l -6.65625,7.99805 c -9.17988,11.03075 -22.95057,20.0269 -42.01171,27.44726 -30.89201,12.02604 -47.74318,20.95284 -62.30274,33.00586 -18.86667,15.61864 -40.32763,46.88006 -48.88867,71.21485 -6.81971,19.38503 -8.74757,46.98288 -4.875,69.80469 2.06368,12.16164 2.21703,12.86457 5.22461,24 1.08937,4.03332 3.84428,14.53399 6.12109,23.33398 2.27681,8.79999 5.02081,18.26251 6.09766,21.02734 1.07685,2.76484 1.95703,5.98285 1.95703,7.15235 0,1.89931 -0.39088,1.87894 -3.66602,-0.19336 -5.32434,-3.36891 -7.84041,-6.79015 -13.11523,-17.84375 -8.06053,-16.89116 -11.29033,-28.27557 -15.36133,-54.14258 -2.25727,-14.34258 -0.75104,-50.54231 2.76367,-66.4082 3.7091,-16.74331 8.29111,-32.02341 12.09961,-40.35547 1.65174,-3.6136 4.69424,-10.33007 6.76172,-14.92578 8.18207,-18.18755 37.34128,-64.64387 65.88867,-104.97657 17.13341,-24.20663 44.6493,-65.80977 52.07032,-78.72656 22.38432,-38.96143 26.28756,-47.12515 35.98242,-75.27344 7.6494,-22.20944 11.76226,-46.62957 10.44336,-61.999996 C 372.13888,70.631384 366.27971,48.984693 359.63672,38.201113 350.27948,23.011487 334.51078,8.999192 318.75391,1.874941 302.13467,-5.639215 277.72936,-10.08014 253.42188,-10.013731 Z M 690.66602,317.789 l -9,9.20312 c -10.0476,10.27605 -25.96522,22.80288 -30.38477,23.91211 -2.39853,0.602 -3.18918,2.35383 -4.64844,10.29688 -0.96712,5.26419 -2.79092,12.76997 -4.05273,16.67969 l -2.29297,7.10937 3.52344,-0.83789 c 1.93785,-0.46113 7.72214,-2.81703 12.85547,-5.23437 11.35381,-5.34665 20.49479,-13.68451 25.74023,-23.47852 4.31124,-8.04971 8.25977,-23.38848 8.25977,-32.08789 z m -51.1836,34.2207 c -0.89602,0.0165 -3.51837,1.33732 -6.32226,3.22266 -11.06391,7.43938 -36.29518,19.71702 -55.30274,26.91211 -1.85002,0.70031 -3.59692,3.49265 -5.12109,8.17969 -4.60621,14.16473 -15.33381,27.72118 -27.18164,34.35156 -3.44646,1.92874 -1.28362,2.73787 3.8164,1.42773 24.70545,-6.34659 41.94664,-10.45766 42.31446,-10.08984 0.84116,0.84116 -3.49263,17.42399 -6.20899,23.75976 -3.22154,7.5141 -2.94468,7.60015 9.95703,3.14063 20.72913,-7.16508 26.95655,-11.09839 36.70118,-23.17969 2.61844,-3.24632 9.0424,-18.31744 9.9375,-23.31445 l 0.89843,-5.01953 -10.81836,4.5625 c -5.95029,2.50951 -10.81836,4.244 -10.81836,3.85547 0,-0.38852 -0.76543,-0.0718 -1.69921,0.70312 -1.40522,1.16623 -11.10613,4.07925 -25.63477,7.69531 -1.46667,0.36504 3.96715,-2.56549 12.07617,-6.51172 16.74527,-8.14902 22.70769,-13.36216 27.94531,-24.43359 3.57974,-7.56693 7.24673,-23.6732 5.73438,-25.18555 -0.053,-0.053 -0.14543,-0.0785 -0.27344,-0.0762 z m 0.11328,83.50586 c -1.08234,-0.0182 -2.59153,0.56349 -4.29882,1.74805 -4.3744,3.03504 -21.65433,8.31309 -39.39454,12.03125 -16.53948,3.4665 -16.85487,3.60042 -23.59765,10.09961 -3.7586,3.62279 -9.32283,7.85608 -12.36524,9.4082 -3.0424,1.55213 -5.32276,3.01857 -5.06836,3.25781 0.25439,0.23923 6.89361,-0.82178 14.75391,-2.35742 7.8603,-1.53564 14.61286,-2.47112 15.00586,-2.07812 0.78066,0.78066 -1.15254,7.39672 -4.0957,14.01562 -2.97962,6.70088 -3.42777,6.62599 12.79882,2.15625 12.86792,-3.54456 26.49849,-11.11651 33.04688,-18.35742 5.62586,-6.22084 14.95312,-23.73269 14.95312,-28.07422 0,-1.21323 -0.65594,-1.83143 -1.73828,-1.84961 z m -66.31445,63.47071 -9.29102,9.22656 c -5.10986,5.07473 -11.68008,13.12591 -14.59961,17.89258 -7.95838,12.99351 -23.27812,28.25345 -35.7246,35.58398 -3.11667,1.83561 -5.66602,3.8152 -5.66602,4.40039 0,1.4266 3.48555,2.68359 7.44336,2.68359 1.77335,0 3.22302,0.45 3.22266,1 -9.8e-4,1.4962 -12.47984,11.98791 -24.61133,20.69336 C 477.43628,602.39195 454.56241,613.47935 430,621.51556 l -5.33398,1.7461 6,0.0801 c 3.29999,0.0439 11.4,-0.77677 18,-1.82226 6.59999,-1.04549 23.10131,-4.04324 36.66796,-6.66211 24.03569,-4.63978 25.02414,-4.72389 38.66602,-3.25586 14.51736,1.56223 35.31266,0.90143 50.56641,-1.60742 22.80466,-3.75079 53.50113,-16.76805 72.15625,-30.59766 11.07476,-8.21005 26.92406,-24.7312 30.55859,-31.85547 2.68529,-5.2636 2.68859,-5.35706 0.14063,-6.7207 -5.77757,-3.09205 -31.44838,-11.91554 -31.78711,-10.92578 -1.63445,4.77574 -10.89662,16.34134 -18.37305,22.9414 -15.41531,13.60835 -40.36893,28.33268 -58.70899,34.64258 -9.49504,3.26677 -10.8385,2.60542 -2.23046,-1.09765 7.51459,-3.23269 28.68154,-15.58203 34.81835,-20.31446 14.72915,-11.35844 20.37426,-16.52614 24.94922,-22.84179 2.83588,-3.91487 5.55705,-7.41849 6.04883,-7.78516 1.00174,-0.74689 5.19531,-10.43418 5.19531,-12.00195 0,-0.5548 -1.95065,-1.77419 -4.33398,-2.71094 -2.38334,-0.93675 -7.33334,-3.0239 -11,-4.63867 -3.66667,-1.61478 -9.00064,-3.77219 -11.85352,-4.79297 -4.76287,-1.70419 -5.30739,-1.65275 -6.66601,0.625 -9.78725,16.40856 -22.60446,29.7054 -37.05274,38.43945 -9.62534,5.81858 -20.95337,10.99781 -21.92578,10.02539 -0.27436,-0.27435 2.60877,-2.51266 6.40821,-4.97461 12.65886,-8.20267 30.0028,-26.12939 42.3164,-43.74023 3.23184,-4.62216 2.75207,-6.44631 -1.99023,-7.56445 -1.41283,-0.33312 -6.03244,-1.62217 -10.26367,-2.86329 z" />
    <path
       style="display:inline;fill:#000000"
       d="M 77.806737,706.05703 C 70.500367,704.60616 61.078105,699.61893 45.61264,689.01658 32.3316,679.91177 24.566982,676.8007 15.0868,676.78573 c -4.535594,-0.007 -9.7855939,0.57212 -11.666667,1.28731 L 0,679.37337 v -7.82435 c 0,-9.26784 0.25728532,-9.44298 13.871532,-9.44298 9.563738,0 19.871706,2.54542 25.795136,6.36979 4.001023,2.58319 3.929251,1.52103 -1.016036,-15.03646 C 30.989327,627.78828 27.731624,614.13501 24.652624,594.77271 20.52845,568.83783 19.005861,531.3832 21.270831,511.58301 26.121804,469.1762 29.975438,454.09684 42.603943,428.10604 62.48429,387.1902 86.116475,358.38745 165.12949,278.77271 c 65.41219,-65.91033 71.70757,-72.70774 85.82256,-92.66666 11.52047,-16.29021 21.04796,-38.90278 21.04796,-49.95529 0,-6.55748 -4.21715,-19.16995 -7.74202,-23.15451 -2.21634,-2.50539 -2.63909,-2.50765 -22.92465,-0.12258 -23.94359,2.81517 -35.38161,3.08448 -52.41123,1.23404 -64.14355,-6.96983 -61.65771,-7.01482 -103.588774,1.87508 -5.500001,1.16607 -12.221798,2.12083 -14.937329,2.12169 -4.570068,0.001 -5.040616,-0.37035 -6.325897,-4.99843 C 58.273645,92.233984 71.75833,74.892644 106,59.184106 c 4.4,-2.018522 8.9,-3.69435 10,-3.724062 3.28736,-0.08879 17.07335,-8.493338 25.39965,-15.484739 8.01166,-6.727209 9.29824,-8.535913 6.07181,-8.535913 -2.67571,0 -10.10121,-8.88926 -10.34121,-12.379728 -0.1117,-1.624483 -0.29331,-3.853605 -0.40359,-4.953605 -0.3019,-3.011429 2.0905,-8.099359 6.37723,-13.56244 7.32083,-9.329813 25.9478,-14.225785 45.02291,-11.833968 10.44324,1.309471 10.8359,1.253795 17.61064,-2.497073 13.58053,-7.518933 35.42515,-10.759443 62.26257,-9.236259 21.46134,1.21806 37.20582,5.232733 54.01375,13.772927 15.76693,8.011258 22.28528,12.69136 32.41771,23.275548 23.5439,24.593592 33.55517,53.38561 31.78576,91.414596 -0.81343,17.48268 -0.78961,17.30461 -4.63681,34.66666 -10.39263,46.90105 -34.55192,92.2652 -92.311,173.33333 -6.26978,8.8 -13.66337,19.6 -16.4302,24 -2.76683,4.4 -8.30608,13.1 -12.30944,19.33333 -6.21529,9.67734 -9.50388,15.55861 -12.3016,22 -0.31851,0.73334 1.14985,-0.23618 3.26302,-2.15447 9.87941,-8.96829 27.76766,-19.86803 68.62193,-41.81298 9.22889,-4.95731 18.52889,-10.40339 20.66667,-12.10239 2.13778,-1.699 7.04656,-5.54995 10.90841,-8.55765 3.86184,-3.0077 8.96184,-8.43616 11.33333,-12.06324 2.37149,-3.62708 4.62536,-6.60547 5.0086,-6.61864 1.40801,-0.0484 5.14156,8.84772 6.70485,15.97604 2.46427,11.23661 2.05085,11.076 13.93619,5.4143 22.27072,-10.6089 45.20199,-18.91167 68.18467,-24.68779 15.4931,-3.8938 54.49944,-11.11633 68.4775,-12.6795 7.7,-0.8611 16.4,-1.85373 19.33333,-2.20586 2.93333,-0.35213 31.32551,-0.86243 63.09373,-1.134 l 57.7604,-0.49377 8.23808,-6.10669 c 4.53093,-3.35868 8.98876,-6.10669 9.90626,-6.10669 2.43145,0 2.15578,17.05256 -0.43875,27.14088 -1.15882,4.50585 -4.0896,11.94245 -6.51284,16.52579 -2.42323,4.58333 -3.92106,8.33333 -3.32851,8.33333 1.06783,0 10.31854,-6.73005 17.87137,-13.00172 3.6118,-2.99914 4.05343,-3.07935 5.56595,-1.01085 2.68595,3.67326 4.8694,20.32514 4.18159,31.89055 -0.63895,10.74371 -2.7878,18.70785 -8.1274,30.12202 -3.76303,8.04401 -18.55841,22.44093 -27.88115,27.13026 -7.0514,3.54685 -7.68404,4.2629 -9.60532,10.87187 -1.1312,3.89123 -2.05674,7.5915 -2.05674,8.22282 0,0.63133 -1.20117,3.38899 -2.66926,6.12813 l -2.66925,4.98025 h 6.09244 c 5.69473,0 6.03394,0.19584 5.19625,3 -8.31482,27.83393 -13.56395,39.4847 -22.76183,50.52135 -5.48547,6.58208 -14.67619,13.62414 -22.44278,17.19597 l -5.25444,2.41649 4.58777,2.01347 c 13.00024,5.70551 36.18363,16.30506 43.1207,19.71499 9.02391,4.43572 24.51705,9.90141 31.72193,11.1909 5.75527,1.03005 14.38746,-2.48293 30.41181,-12.37644 12.2765,-7.57958 19.70428,-13.30816 29.63179,-22.85317 4.19749,-4.03576 8.01671,-6.95283 8.48715,-6.48239 2.22972,2.22971 5.98267,23.77798 5.73975,32.95583 -0.33798,12.76936 -4.08068,27.74748 -8.66417,34.67359 -1.97162,2.97932 -3.22934,5.77237 -2.79494,6.20676 1.33638,1.33638 14.54482,-2.40418 21.82226,-6.17995 l 6.89822,-3.57901 0.90147,7.7671 c 1.91715,16.51834 -2.74409,40.45133 -10.3512,53.14784 -10.47454,17.48235 -29.38447,32.00633 -56.337,43.27023 l -12,5.01499 -8.27638,15.69212 c -4.55201,8.63066 -7.97244,15.99606 -7.60095,16.36756 2.42864,2.42863 18.73445,-4.5596 34.17589,-14.64685 15.03081,-9.819 23.80594,-12.83042 37.70144,-12.93826 9.91808,-0.077 13.38794,0.48543 20,3.24162 l 8,3.33474 0.39987,7.66526 c 0.45543,8.73024 -0.058,9.03684 -8.38333,5.00659 -9.87411,-4.77997 -19.58265,-5.99873 -29.03334,-3.64469 -7.60759,1.89495 -23.83102,10.25202 -40.06578,20.63884 -8.53345,5.4596 -17.74404,7.52804 -29.43921,6.61121 -10.82799,-0.84884 -15.97941,-2.74578 -25.79789,-9.49971 -3.82216,-2.62917 -7.27062,-4.78032 -7.66326,-4.78032 -0.39264,0 -4.1571,-2.3228 -8.36548,-5.16178 -10.81295,-7.29444 -19.69485,-9.90812 -31.41907,-9.2457 -11.01565,0.62238 -19.10191,4.03198 -36.60412,15.43423 -6.07104,3.95514 -14.76929,8.70722 -19.32944,10.56017 -7.28417,2.95982 -9.74912,3.30013 -20.29507,2.8019 -13.44162,-0.63504 -18.81351,-2.842 -33.33722,-13.69613 -4.4,-3.28829 -12.19791,-8.08936 -17.3287,-10.66903 -7.91351,-3.9788 -10.69254,-4.69033 -18.31903,-4.69033 -11.82097,0 -18.74354,2.75722 -38.11427,15.1807 -19.37768,12.42792 -24.72293,14.51185 -37.57134,14.64771 -11.49454,0.12155 -15.83054,-1.65988 -43.11396,-17.71317 -27.05,-15.91595 -37.79112,-15.00643 -71.30923,6.0382 -14.19243,8.91084 -22.26738,11.63138 -34.23505,11.53415 -12.29321,-0.0999 -19.35121,-2.93054 -38.11387,-15.28588 -18.08951,-11.91207 -24.03273,-14.40171 -34.37947,-14.40171 -10.6063,0 -19.47932,3.35644 -37.51509,14.19101 -24.49061,14.71217 -34.777212,17.88981 -48.859933,15.09332 z M 106.66667,687.0363 C 110.7,685.12895 119.1,680.36469 125.33334,676.44906 142.73265,665.51923 150.50567,662.77135 164,662.77982 c 13.42932,0.008 19.37661,2.35561 38.4295,15.16675 15.85721,10.66236 23.19505,13.4928 34.97969,13.4928 10.91202,0 19.96129,-3.23451 33.25748,-11.88734 4.76667,-3.10203 13.16667,-7.84639 18.66667,-10.54302 9.49399,-4.65488 10.67468,-4.90297 23.33333,-4.90297 15.05147,0 13.61855,-0.54727 40.25854,15.37574 18.32862,10.95521 23.00523,12.45275 36.40813,11.65858 10.78534,-0.63907 17.14523,-3.1673 28.17864,-11.20175 3.39825,-2.47458 6.73511,-4.49924 7.41525,-4.49924 0.68014,0 2.40344,-1.05 3.82955,-2.33333 5.89883,-5.30825 18.40594,-9.95283 28.70168,-10.65852 12.88536,-0.88318 20.30069,1.46728 33.91704,10.7508 24.70543,16.84396 27.83682,18.22121 41.45688,18.23361 10.64707,0.01 16.35147,-2.12561 33.85995,-12.67468 24.23398,-14.60127 27.93271,-15.98455 42.74079,-15.98455 15.30389,0 20.27703,1.92044 40.53127,15.65161 7.31373,4.95828 14.31332,9.01506 15.55462,9.01506 1.24131,0 4.07699,-2.29801 6.30151,-5.1067 4.49846,-5.67977 17.51283,-30.09113 17.51283,-32.84923 0,-1.0507 5.25196,-3.47883 13,-6.01027 12.04275,-3.9346 17.6802,-6.45848 32.11329,-14.37709 6.61818,-3.63102 25.55338,-22.01459 25.55338,-24.80895 0,-1.09484 0.94215,-2.93276 2.09366,-4.08427 2.98788,-2.98788 7.23967,-18.85578 7.23967,-27.01881 v -6.93048 l -7.50672,3.43669 c -6.87657,3.1482 -8.47155,3.36443 -19.00001,2.57587 -6.3213,-0.47346 -17.73262,-1.24389 -25.3585,-1.71208 l -13.86523,-0.85125 12.65586,-4.90416 c 23.15817,-8.97383 31.5059,-18.99337 34.42719,-41.32199 0.62094,-4.74616 0.79044,-10.32216 0.37665,-12.39111 l -0.75235,-3.76173 -10.15511,9.87605 c -12.71497,12.36556 -23.36331,19.28659 -38.43181,24.9793 l -11.7806,4.45058 -5.46597,9.41151 c -6.06547,10.44375 -18.8031,25.36625 -25.47673,29.84671 -2.38334,1.60009 -4.33334,3.42571 -4.33334,4.05693 0,0.63122 2.55,1.48261 5.66667,1.89198 6.55507,0.86099 8.80377,1.35287 17.0052,3.71969 6.62736,1.91256 39.59614,2.49047 52.66147,0.9231 l 8,-0.95971 -10.88473,4.60938 c -5.98661,2.53515 -15.36006,5.59275 -20.82991,6.79466 -9.77931,2.14884 -10.26486,2.12561 -29.11526,-1.39303 -38.27457,-7.14439 -33.4645,-7.18085 -49.30533,0.37374 -7.62563,3.63671 -17.02748,7.64297 -20.893,8.90281 -5.70335,1.85881 -6.74079,2.63695 -5.50341,4.1279 0.83865,1.01051 2.08678,1.8373 2.77362,1.8373 4.56803,0 37.16602,19.03643 35.48189,20.72056 -0.28526,0.28526 -8.88983,-2.18888 -19.12126,-5.49808 -48.16937,-15.57966 -82.21038,-17.76374 -131.26928,-8.42229 -7.7,1.46618 -20.3,3.32929 -28,4.14026 -37.27245,3.92553 -62.35614,3.89587 -80.83401,-0.0956 -14.34993,-3.09978 -37.16952,-9.94432 -40.49933,-12.14742 -1.37429,-0.90928 3.64234,-1.32965 16.03498,-1.34368 43.61917,-0.0494 84.23747,-9.64956 112.89673,-26.68326 7.18756,-4.27195 15.74322,-10.52042 19.01257,-13.8855 l 5.94428,-6.11833 -11.94428,-0.0768 c -6.56935,-0.0423 -14.34428,-0.53524 -17.27761,-1.09551 l -5.33333,-1.01868 8,-1.58473 c 4.4,-0.8716 11.15545,-2.22287 15.01212,-3.00282 9.46681,-1.91451 22.22087,-7.18652 30.34914,-12.5451 10.5051,-6.92552 23.3054,-21.81251 23.3054,-27.10463 0,-0.74275 -2.5008,-0.75654 -6.33333,-0.0349 -3.48333,0.65585 -13.24439,1.76116 -21.69123,2.45625 -8.44685,0.69508 -17.32748,1.95038 -19.73473,2.78955 -2.40726,0.83918 -4.66766,1.23495 -5.02311,0.87949 -1.65113,-1.65112 10.7326,-5.53411 30.47922,-9.55695 27.39928,-5.58185 36.4324,-9.535 46.17951,-20.20948 6.0655,-6.64259 17.03539,-25.42834 15.65492,-26.8088 -0.23162,-0.23162 -3.97091,0.73371 -8.30952,2.14518 -17.30403,5.62947 -42.99554,9.43468 -63.69989,9.43468 -13.10135,0 -13.1875,-0.0211 -10.03498,-2.45764 3.6163,-2.79501 20.52769,-8.84898 28.51314,-10.2072 20.95377,-3.56395 37.68976,-10.87734 45.68968,-19.96573 5.40976,-6.14581 12.9945,-19.47667 15.07154,-26.48959 0.96973,-3.27419 0.81363,-3.655 -1.15316,-2.81304 -21.01135,8.99471 -65.73901,17.90285 -79.73395,15.88013 -11.99122,-1.73312 -11.23807,-2.74537 6.19638,-8.32808 23.79574,-7.61966 38.14685,-14.59425 44.44629,-21.60073 4.98362,-5.54297 14.29236,-23.37867 16.19739,-31.03445 l 0.91645,-3.683 -6.48197,2.82522 c -24.6872,10.76009 -58.79028,19.08162 -75.15435,18.33848 l -10.66148,-0.48416 -0.77544,4.67656 c -2.53966,15.31627 -7.93759,28.49637 -14.79742,36.13073 -5.70944,6.35409 -5.4969,6.36834 9.41924,0.63112 l 9.17921,-3.53061 -0.88852,6.69794 c -2.0282,15.28937 -9.89327,33.26694 -18.55587,42.41405 -4.64237,4.90204 -3.73423,5.22994 6.75265,2.43819 l 7,-1.86349 v 4.47716 c 0,6.96033 -6.05144,24.4387 -11.76342,33.97625 -3.01757,5.03859 -7.73053,10.56302 -11.30932,13.25654 -3.37466,2.53989 -6.01336,4.74036 -5.86379,4.88994 0.14958,0.14957 3.22101,-0.27899 6.82542,-0.95237 3.6044,-0.67337 6.88086,-0.89691 7.28103,-0.49674 1.43916,1.43915 -5.91385,20.08469 -10.81487,27.42402 -9.32473,13.96389 -21.19204,22.42313 -37.40146,26.66045 -3.09114,0.80806 -15.52026,2.23054 -27.62026,3.16107 -12.1,0.93053 -23.8,2.11625 -26,2.63494 -3.0469,0.71835 -3.52345,0.59907 -2,-0.50063 3.50851,-2.53261 18.92614,-6.43602 32,-8.1017 24.46805,-3.11737 33.95299,-6.58204 44.48156,-16.24828 5.68125,-5.21593 20.08452,-26.30038 18.82607,-27.55883 -0.28656,-0.28656 -5.198,0.71106 -10.91432,2.21693 -13.81149,3.63842 -25.86219,5.34188 -44.39331,6.27536 l -15.33333,0.77239 4.9292,-2.72613 c 2.71106,-1.49937 10.21106,-3.93654 16.66667,-5.41593 6.4556,-1.47939 17.69341,-4.92242 24.97289,-7.65118 18.07396,-6.77513 25.04216,-13.16998 34.12867,-31.3206 3.687,-7.36491 6.41329,-13.68108 6.05842,-14.03595 -0.35487,-0.35487 -3.22011,0.39772 -6.3672,1.67241 -5.47303,2.2168 -17.77558,6.08523 -27.72199,8.71694 -11.30278,2.99059 -36.19352,6.75807 -42.14968,6.3798 l -6.51698,-0.41389 4.66666,-2.87038 c 2.56667,-1.57871 12.75231,-5.34931 22.63477,-8.3791 28.3043,-8.67764 38.50694,-14.29746 46.66211,-25.70244 5.18712,-7.25417 14.16078,-26.03487 12.99623,-27.19942 -0.30242,-0.30242 -4.09209,1.02037 -8.42148,2.93955 -7.06836,3.13334 -17.99589,6.78206 -27.20496,9.08379 -14.90615,3.72566 -35.66946,7.53331 -39.12296,7.1745 -4.03544,-0.41928 -3.85029,-0.61394 4.45629,-4.68504 4.76667,-2.33617 15.26667,-6.99797 23.33334,-10.35956 23.10222,-9.62729 30.67013,-15.70054 38.42955,-30.83975 2.47473,-4.82837 7.80789,-23.36915 6.9646,-24.21245 -0.3131,-0.31309 -3.75487,1.23801 -7.64838,3.44689 -3.89351,2.20888 -10.9791,5.63045 -15.74577,7.60348 -4.76667,1.97303 -10.46667,4.3901 -12.66667,5.37128 -11.67631,5.20749 -37.95811,11.29532 -48.76315,11.29532 -4.91265,0 -2.50095,-2.01448 5.33598,-4.4571 4.33585,-1.3514 12.45482,-4.80947 18.04215,-7.68459 32.6289,-16.79015 65.43796,-27.04663 106.05169,-33.15297 15.03333,-2.26028 30.03333,-4.69792 33.33333,-5.41698 3.3,-0.71906 11.90591,-2.51748 19.12423,-3.99649 51.26561,-10.50415 86.96702,-37.50078 102.03509,-77.1567 l 2.60823,-6.8643 -7.55044,6.42274 c -7.67985,6.53283 -10.74615,8.67147 -19.7987,13.80888 -20.56084,11.66848 -54.6181,23.14943 -82.41841,27.78384 -5.13333,0.85574 -12.33333,2.1102 -16,2.78768 -11.1939,2.06826 -42.16282,5.54094 -42.89389,4.80988 -1.78084,-1.78084 22.57881,-11.51353 35.56056,-14.20791 7.7,-1.59815 15.8,-3.4313 18,-4.07368 2.2,-0.64237 12.56255,-2.706 23.0279,-4.58583 30.67963,-5.51083 52.05729,-14.38567 62.37145,-25.89324 l 5.26732,-5.87677 -6.66667,0.82416 c -7.81862,0.96656 -42.44482,2.98997 -84.66667,4.94757 -36.64322,1.69894 -56.70712,4.53294 -88.66666,12.52407 -12.97312,3.24379 -45.28485,14.49703 -53.33334,18.57447 -2.2,1.11454 -9.4,4.42399 -16,7.35433 -23.42834,10.40199 -24.56314,11.11107 -25.91934,16.19561 -0.68461,2.56666 -2.7559,11.38023 -4.60287,19.58571 -1.88063,8.35499 -5.42238,19.1742 -8.04985,24.59033 -2.58044,5.31921 -4.52192,9.84109 -4.31439,10.04862 0.20753,0.20753 6.26358,-2.03643 13.45788,-4.98657 7.1943,-2.95014 13.38385,-5.06059 13.75456,-4.68989 2.20332,2.20333 -0.63986,21.19528 -4.70768,31.44646 -4.16957,10.50758 -12.2865,21.91481 -17.51912,24.62071 -2.1156,1.09402 -4.67619,2.81877 -5.6902,3.83278 -2.6151,2.61509 -12.26935,6.70111 -24.20512,10.24444 -5.63587,1.67311 -10.03868,3.25038 -9.78401,3.50504 0.25466,0.25466 6.11437,-0.75627 13.02158,-2.24652 30.53657,-6.58835 43.28449,-9.27122 44.0835,-9.2776 1.39378,-0.0111 -1.13471,9.42461 -5.20708,19.43159 -5.0036,12.29527 -10.99624,20.7882 -19.29916,27.35129 -10.79523,8.53313 -15.33695,10.42427 -39.63137,16.50218 -7.67029,1.91893 -14.27029,3.84511 -14.66666,4.28039 -1.5038,1.65143 43.96081,-2.11039 68.90802,-5.70156 l 5.6287,-0.81026 -3.4406,8.46736 c -5.99037,14.74239 -9.35876,20.26976 -17.07304,28.01603 -4.132,4.14913 -10.3397,8.87291 -13.7949,10.49728 -8.97358,4.21868 -30.29427,9.25792 -39.24795,9.27641 -7.26728,0.015 -7.73702,0.22308 -9.81888,4.3491 -3.09277,6.12957 -8.3468,11.45094 -14.54869,14.73518 -4.25992,2.25587 -7.74851,2.83509 -17.33333,2.87789 -16.03389,0.0716 -23.07768,-3.57345 -30.81516,-15.9464 -2.27562,-3.63892 -1.91514,-3.48989 3.99331,1.65087 3.5721,3.10798 8.66833,6.25464 11.32496,6.99257 7.21003,2.00273 17.17146,1.6361 22.35301,-0.82271 4.22147,-2.00322 13.81054,-12.04542 13.81054,-14.46316 0,-0.56895 -3.15,-0.65886 -7,-0.19979 -6.91822,0.8249 -6.95578,0.81011 -3.21532,-1.26597 2.35052,-1.30463 11.445,-2.84548 24,-4.06625 39.03035,-3.79506 49.25095,-8.72017 63.54942,-30.62324 3.66625,-5.61612 6.66591,-10.67719 6.66591,-11.24682 0,-0.56962 -3.15,-0.22184 -7,0.77285 -17.85571,4.61323 -62.86271,6.31819 -76.1074,2.88311 -6.04513,-1.56784 -6.29082,-1.79788 -4,-3.74524 5.13399,-4.36428 13.12878,-8.063 21.61988,-10.00226 38.43465,-8.778 47.48152,-12.63679 56.76572,-24.2125 5.81715,-7.25292 16.42658,-26.39901 15.26433,-27.54646 -0.29839,-0.29459 -4.14253,0.9347 -8.54253,2.73177 -15.16101,6.19213 -39.10301,10.2426 -61.33334,10.37629 -12.25728,0.0737 -20.17202,-0.3959 -20.44433,-1.21306 -0.24438,-0.73333 4.25562,-2.73523 10,-4.44865 32.71497,-9.75818 42.14294,-13.04434 52.84582,-18.41965 15.84607,-7.95838 21.96501,-14.40064 27.95135,-29.42829 5.02179,-12.60632 7.28626,-20.98766 5.45447,-20.1883 -0.62735,0.27377 -6.24064,2.97582 -12.47397,6.00455 -19.10042,9.28078 -22.82364,10.73456 -38,14.83764 -21.9579,5.93654 -26.84802,6.97604 -32.81764,6.97604 -7.80458,0 -14.01292,3.38333 -23.5157,12.81523 -4.58333,4.54915 -8.33286,7.57674 -8.33228,6.72798 0.003,-3.95076 8.27887,-18.10768 13.51043,-23.11046 6.64122,-6.35078 19.8535,-12.911 30.22081,-15.00538 3.8861,-0.78505 13.19086,-1.42737 20.67726,-1.42737 h 13.61163 l 5.61683,-8.33334 c 5.74774,-8.52755 11.81175,-20.986 15.41485,-31.66967 2.92703,-8.67901 6.28047,-29.36068 6.28047,-38.73347 v -8.06863 l -6.65567,7.9976 c -9.17989,11.03076 -22.94984,20.02728 -42.011,27.44765 -30.89204,12.02605 -47.74456,20.95408 -62.30413,33.00712 -18.86669,15.61865 -40.32735,46.87996 -48.8884,71.21477 -6.81972,19.38505 -8.74677,46.9828 -4.8742,69.80463 2.06368,12.16166 2.21669,12.86456 5.22427,24 1.08937,4.03333 3.84352,14.53333 6.12033,23.33333 2.27681,8.8 5.02071,18.26214 6.09756,21.02698 1.07685,2.76484 1.95791,5.98385 1.95791,7.15335 0,1.89931 -0.39153,1.87863 -3.66667,-0.19367 -5.32435,-3.36891 -7.83939,-6.79117 -13.11422,-17.84478 -8.06054,-16.89118 -11.29036,-28.27484 -15.36136,-54.14188 -2.25727,-14.34259 -0.75044,-50.54141 2.76428,-66.40732 3.7091,-16.74332 8.29018,-32.02376 12.09869,-40.35583 1.65174,-3.6136 4.69474,-10.33031 6.76222,-14.92603 8.18208,-18.18757 37.3403,-64.64474 65.88772,-104.97748 17.13342,-24.20666 44.65048,-65.80924 52.0715,-78.72604 22.38435,-38.96147 26.28692,-47.12564 35.98179,-75.27395 7.64941,-22.20947 11.76309,-46.62956 10.44419,-61.999996 C 372.13984,70.630794 366.28026,48.984209 359.63726,38.200618 350.28001,23.010977 334.51089,9.000126 318.754,1.875868 302.13475,-5.638295 277.72872,-10.079649 253.42121,-10.01324 230.4191,-9.9504 213.65134,-5.952417 203.17213,1.967782 c -8.13154,6.145829 -8.67116,8.456427 -2.64297,11.31699 2.56008,1.214838 6.44905,4.385667 8.64216,7.046287 3.9008,4.732348 4.08307,4.797889 8.38606,3.015534 2.57569,-1.066889 9.39402,-1.839619 16.45242,-1.864578 10.32662,-0.03651 12.57235,0.365147 15.67236,2.80309 l 3.61851,2.845712 -8.59915,0.547553 c -4.72954,0.301154 -8.97013,0.918525 -9.42354,1.371936 -0.45341,0.45341 0.19726,2.38361 1.44594,4.289333 3.58676,5.474079 2.13714,17.025906 -2.78069,22.159013 -7.90621,8.252302 -19.76199,8.442332 -28.59926,0.458391 l -5.1636,-4.664998 -7.3607,10.407009 c -4.04838,5.72385 -7.72891,12.02181 -8.17895,13.99547 -1.08605,4.76295 1.34034,8.97791 6.12926,10.64734 2.14318,0.74712 3.89669,1.83754 3.89669,2.42317 0,0.58563 -2.2005,2.99684 -4.88999,5.35825 -4.57962,4.02096 -4.72772,4.38612 -2.33334,5.75309 1.40617,0.802786 3.45666,1.689486 4.55666,1.970446 3.19436,0.81587 22.82877,0.77271 28.66667,-0.063 16.11567,-2.307036 30.10586,-3.563536 48,-4.311026 l 20,-0.83545 -5.40097,5.201346 c -2.97054,2.86075 -6.27054,5.49495 -7.33333,5.8538 -1.43412,0.48422 -0.60975,2.12071 3.1972,6.34692 9.2923,10.31567 11.80844,21.48268 8.27672,36.73332 -2.09108,9.02968 -11.82867,28.16618 -18.99703,37.33333 -15.69016,20.06512 -35.6107,41.4532 -83.82467,90 -30.953,31.16666 -59.11254,59.96666 -62.57676,64 -3.46422,4.03333 -8.35019,9.73333 -10.85772,12.66666 -8.91369,10.42735 -27.527794,34.68136 -33.71928,43.93593 -19.053946,28.4804 -32.765329,64.93403 -37.637312,100.06407 -1.862827,13.43214 -2.287545,51.05122 -0.73761,65.33333 4.051303,37.33135 5.37382,44.75533 14.726346,82.66666 9.327889,37.81148 9.670755,38.77551 14.6096,41.07764 6.710976,3.12816 8.903366,3.45718 20.274815,3.04267 8.152042,-0.29715 12.395471,-1.20635 18.000001,-3.85671 z m 14,-28.51884 c -7.44418,-1.5598 -20.54902,-14.73939 -25.598736,-25.74475 -3.266948,-7.12 -2.983028,-23.28589 0.526888,-30 1.533448,-2.93334 3.978797,-6.41014 5.434108,-7.72624 2.63748,-2.38517 2.63791,-2.36365 0.13257,6.66667 -2.482566,8.94822 -2.480384,9.19066 0.17753,19.72623 4.22521,16.74808 13.95928,28.92023 28.17147,35.2275 l 5.82284,2.58414 -6,-0.0874 c -3.3,-0.0481 -7.2,-0.33883 -8.66667,-0.64615 z m 5.09897,-71.92814 c -8.48859,-3.00785 -17.04766,-11.36403 -22.04997,-21.5273 -5.423592,-11.01919 -5.901606,-22.4649 -1.36244,-32.62265 1.55659,-3.48333 3.0139,-6.33333 3.23847,-6.33333 0.22456,0 0.4083,5.85 0.4083,13 0,11.08284 0.48084,13.98316 3.2605,19.66667 5.92446,12.11364 25.21549,27.29496 34.75864,27.35375 2.62925,0.0162 2.90086,0.28754 1.3142,1.31291 -2.90384,1.8766 -13.12589,1.43254 -19.5677,-0.85005 z M 319.91536,140.54036 c 5.73917,-17.1069 6.53174,-36.49656 2.01511,-49.298076 -2.28558,-6.47801 -2.28471,-6.46956 -0.66471,-6.46956 3.09417,0 9.43794,9.02002 10.88201,15.472796 2.67348,11.94637 -3.36566,34.49296 -11.92668,44.5272 l -2.84393,3.33333 z m 128.75132,480.97926 c 6.6,-1.04549 23.1,-4.0436 36.66667,-6.66247 24.03571,-4.63978 25.02477,-4.72304 38.66666,-3.25501 14.51737,1.56223 35.31274,0.90102 50.5665,-1.60784 22.80469,-3.75079 53.50198,-16.76752 72.15711,-30.59714 11.07477,-8.21006 26.92358,-24.73233 30.55811,-31.8566 2.68529,-5.26361 2.68724,-5.35731 0.13927,-6.72095 -5.77757,-3.09205 -31.44664,-11.91505 -31.78537,-10.92529 -1.63445,4.77575 -10.89751,16.34159 -18.37395,22.94166 -15.41532,13.60836 -40.36809,28.33242 -58.70816,34.64233 -9.49505,3.26677 -10.83871,2.60585 -2.23067,-1.09723 7.5146,-3.23269 28.68038,-15.58219 34.8172,-20.31462 14.72916,-11.35845 20.37419,-16.52681 24.94916,-22.84247 2.83588,-3.91487 5.55851,-7.41795 6.05029,-7.78462 1.00174,-0.74689 5.19385,-10.4333 5.19385,-12.00107 0,-0.5548 -1.95,-1.77517 -4.33333,-2.71192 -2.38334,-0.93675 -7.33334,-3.02435 -11,-4.63912 -3.66667,-1.61478 -9.00084,-3.77114 -11.85372,-4.79192 -4.76288,-1.70419 -5.30805,-1.65311 -6.66667,0.62464 -9.78726,16.40858 -22.60437,29.70541 -37.05266,38.43947 -9.62535,5.81858 -20.95289,10.99844 -21.9253,10.02602 -0.27436,-0.27435 2.60981,-2.51315 6.40925,-4.9751 12.65888,-8.20268 30.00165,-26.12953 42.31526,-43.74039 3.23184,-4.62216 2.7516,-6.44722 -1.99071,-7.56537 -1.41283,-0.33312 -6.03071,-1.62113 -10.26195,-2.86225 l -7.69317,-2.25657 -9.29068,9.22679 c -5.10987,5.07474 -11.67938,13.12679 -14.59891,17.89346 -7.95839,12.99353 -23.27758,28.25205 -35.72408,35.58259 -3.11667,1.83561 -5.66667,3.81626 -5.66667,4.40145 0,1.4266 3.48458,2.68263 7.44239,2.68263 1.77335,0 3.22399,0.45 3.22363,1 -9.8e-4,1.4962 -12.47918,11.98855 -24.61068,20.69401 -16.61842,11.92523 -39.49291,23.01311 -64.05534,31.04933 l -5.33333,1.74493 6,0.0798 c 3.3,0.0439 11.4,-0.77564 18,-1.82113 z M 593.33335,483.79647 c 12.86793,-3.54457 26.49851,-11.11617 33.04691,-18.35709 5.62587,-6.22085 14.95309,-23.73234 14.95309,-28.07387 0,-2.42646 -2.62206,-2.4705 -6.03666,-0.10139 -4.3744,3.03504 -21.6545,8.31191 -39.39472,12.03007 -16.5395,3.4665 -16.85377,3.60102 -23.59656,10.10021 -3.7586,3.6228 -9.32307,7.85684 -12.36548,9.40896 -3.04241,1.55213 -5.32352,3.01778 -5.06912,3.25702 0.25439,0.23923 6.8937,-0.82146 14.75401,-2.3571 7.86031,-1.53564 14.61301,-2.47053 15.00601,-2.07753 0.78066,0.78066 -1.15273,7.39622 -4.0959,14.01513 -2.97962,6.70088 -3.42819,6.62533 12.79842,2.15559 z m 2.0998,-40.88203 c 20.72915,-7.16509 26.9562,-11.09792 36.70084,-23.17923 2.61845,-3.24633 9.04259,-18.31842 9.93769,-23.31544 l 0.89914,-5.01961 -10.81874,4.56277 c -5.9503,2.50952 -10.81873,4.24487 -10.81873,3.85634 0,-0.38852 -0.764,-0.0723 -1.69779,0.70263 -1.40522,1.16623 -11.10689,4.07803 -25.63554,7.6941 -1.46667,0.36504 3.96799,-2.56503 12.07702,-6.51126 16.74528,-8.14903 22.70682,-13.36143 27.94445,-24.43287 3.57974,-7.56694 7.24753,-23.6746 5.73518,-25.18695 -0.42392,-0.42392 -3.39259,0.99216 -6.59704,3.14684 -11.06392,7.43939 -36.29403,19.7178 -55.30161,26.9129 -1.85002,0.70031 -3.59846,3.49191 -5.12263,8.17895 -4.60621,14.16475 -15.33275,27.72129 -27.18059,34.35167 -3.44646,1.92874 -1.28405,2.73768 3.81598,1.42754 24.70547,-6.3466 41.94613,-10.45766 42.31395,-10.08984 0.84116,0.84116 -3.49161,17.42395 -6.20797,23.75973 -3.22155,7.5141 -2.94534,7.60126 9.95639,3.14173 z m 61.23353,-63.99659 c 11.35383,-5.34665 20.49487,-13.68445 25.74032,-23.47847 4.31124,-8.04972 8.25968,-23.38941 8.25968,-32.08883 v -5.56242 l -9,9.20462 c -10.04761,10.27606 -25.96517,22.80277 -30.38472,23.912 -2.39853,0.602 -3.18933,2.35362 -4.64859,10.29668 -0.96712,5.2642 -2.79078,12.77014 -4.05259,16.67986 l -2.2942,7.10859 3.52339,-0.83843 c 1.93786,-0.46113 7.72338,-2.81625 12.85671,-5.2336 z M 81.342138,103.38266 c 12.046919,-3.595186 34.753282,-6.837206 55.991202,-7.994446 25.17982,-1.37203 36.84637,-2.88081 41.48928,-5.36562 l 2.94606,-1.57668 -2.81587,-2.16993 c -3.79108,-2.92143 -5.91823,-9.06751 -4.86899,-14.06823 0.47333,-2.25593 3.85979,-9.69002 7.52545,-16.5202 3.66566,-6.830177 6.33472,-12.748617 5.93125,-13.15209 -1.59878,-1.598784 -10.20403,5.332224 -14.03776,11.306566 -5.59808,8.723854 -10.52245,13.134564 -17.35595,15.545564 -11.74521,4.14395 -11.97915,2.66536 -1.15616,-7.30736 9.07316,-8.360354 16.81295,-17.976095 15.49478,-19.250361 -0.26699,-0.25809 -2.38991,-0.665345 -4.71761,-0.90501 -3.62461,-0.373199 -5.44302,0.723382 -12.66666,7.638565 -10.94279,10.475516 -18.23653,14.615906 -34.11921,19.368236 -16.56739,4.95721 -26.070397,9.61257 -33.384552,16.35452 -5.799833,5.3461 -10.930729,13.52937 -10.930729,17.433416 0,2.43043 0.565189,2.48657 6.675469,0.66306 z M 227.63724,52.068827 c 4.28293,-4.28293 4.63635,-5.20751 3.94911,-10.33125 -0.51472,-3.837497 -1.89015,-6.603952 -4.32441,-8.697812 -3.92627,-3.377232 -6.20558,-3.020211 -2.754,0.431373 3.67155,3.671546 2.74812,10.568605 -1.94357,14.516395 -4.92081,4.140588 -7.18784,4.281171 -12.8977,0.799806 -5.38961,-3.286113 -5.62283,-1.098982 -0.4359,4.08795 5.69815,5.698142 12.18613,5.413877 18.40647,-0.806462 z m -7.9039,-8.896102 c 2.57761,-2.577607 1.92322,-7.451047 -1.13065,-8.420307 -3.18039,-1.009418 -6.60268,1.366328 -6.60268,4.583567 0,2.543822 2.48315,5.43674 4.66666,5.43674 0.80667,0 2.18667,-0.72 3.06667,-1.6 z"
       id="path1" />
  </g>
</svg>
